<?xml version="1.0" encoding="utf-8" standalone="no"?>
<!DOCTYPE svg PUBLIC "-//W3C//DTD SVG 1.1//EN"
  "http://www.w3.org/Graphics/SVG/1.1/DTD/svg11.dtd">
<!-- Created with matplotlib (https://matplotlib.org/) -->
<svg height="345.6pt" version="1.1" viewBox="0 0 460.8 345.6" width="460.8pt" xmlns="http://www.w3.org/2000/svg" xmlns:xlink="http://www.w3.org/1999/xlink">
 <metadata>
  <rdf:RDF xmlns:cc="http://creativecommons.org/ns#" xmlns:dc="http://purl.org/dc/elements/1.1/" xmlns:rdf="http://www.w3.org/1999/02/22-rdf-syntax-ns#">
   <cc:Work>
    <dc:type rdf:resource="http://purl.org/dc/dcmitype/StillImage"/>
    <dc:date>2021-06-18T17:32:21.276191</dc:date>
    <dc:format>image/svg+xml</dc:format>
    <dc:creator>
     <cc:Agent>
      <dc:title>Matplotlib v3.3.2, https://matplotlib.org/</dc:title>
     </cc:Agent>
    </dc:creator>
   </cc:Work>
  </rdf:RDF>
 </metadata>
 <defs>
  <style type="text/css">*{stroke-linecap:butt;stroke-linejoin:round;}</style>
 </defs>
 <g id="figure_1">
  <g id="patch_1">
   <path d="M 0 345.6 
L 460.8 345.6 
L 460.8 0 
L 0 0 
z
" style="fill:none;opacity:0;"/>
  </g>
  <g id="axes_1">
   <g id="patch_2">
    <path d="M 57.6 307.584 
L 414.72 307.584 
L 414.72 41.472 
L 57.6 41.472 
z
" style="fill:none;opacity:0;"/>
   </g>
   <g id="PathCollection_1">
    <defs>
     <path d="M -0.5 0.5 
L 0.5 -0.5 
M -0.5 -0.5 
L 0.5 0.5 
" id="m349ef6d3dd" style="stroke:#2ca02c;stroke-width:1.5;"/>
    </defs>
    <g clip-path="url(#p1a170cf955)">
     <use style="fill:#2ca02c;stroke:#2ca02c;stroke-width:1.5;" x="222.023391" xlink:href="#m349ef6d3dd" y="123.335686"/>
     <use style="fill:#2ca02c;stroke:#2ca02c;stroke-width:1.5;" x="222.18588" xlink:href="#m349ef6d3dd" y="123.335686"/>
     <use style="fill:#2ca02c;stroke:#2ca02c;stroke-width:1.5;" x="222.34837" xlink:href="#m349ef6d3dd" y="123.335686"/>
     <use style="fill:#2ca02c;stroke:#2ca02c;stroke-width:1.5;" x="222.51086" xlink:href="#m349ef6d3dd" y="123.335686"/>
     <use style="fill:#2ca02c;stroke:#2ca02c;stroke-width:1.5;" x="222.67335" xlink:href="#m349ef6d3dd" y="123.335686"/>
     <use style="fill:#2ca02c;stroke:#2ca02c;stroke-width:1.5;" x="222.835839" xlink:href="#m349ef6d3dd" y="123.335686"/>
     <use style="fill:#2ca02c;stroke:#2ca02c;stroke-width:1.5;" x="222.998329" xlink:href="#m349ef6d3dd" y="123.335686"/>
     <use style="fill:#2ca02c;stroke:#2ca02c;stroke-width:1.5;" x="223.160819" xlink:href="#m349ef6d3dd" y="123.335686"/>
     <use style="fill:#2ca02c;stroke:#2ca02c;stroke-width:1.5;" x="223.323309" xlink:href="#m349ef6d3dd" y="123.335686"/>
     <use style="fill:#2ca02c;stroke:#2ca02c;stroke-width:1.5;" x="223.485799" xlink:href="#m349ef6d3dd" y="123.335686"/>
     <use style="fill:#2ca02c;stroke:#2ca02c;stroke-width:1.5;" x="223.648288" xlink:href="#m349ef6d3dd" y="123.335686"/>
     <use style="fill:#2ca02c;stroke:#2ca02c;stroke-width:1.5;" x="223.810778" xlink:href="#m349ef6d3dd" y="123.335686"/>
     <use style="fill:#2ca02c;stroke:#2ca02c;stroke-width:1.5;" x="223.973268" xlink:href="#m349ef6d3dd" y="123.335686"/>
     <use style="fill:#2ca02c;stroke:#2ca02c;stroke-width:1.5;" x="224.135758" xlink:href="#m349ef6d3dd" y="123.335686"/>
     <use style="fill:#2ca02c;stroke:#2ca02c;stroke-width:1.5;" x="224.298247" xlink:href="#m349ef6d3dd" y="123.335686"/>
     <use style="fill:#2ca02c;stroke:#2ca02c;stroke-width:1.5;" x="224.460737" xlink:href="#m349ef6d3dd" y="123.335686"/>
     <use style="fill:#2ca02c;stroke:#2ca02c;stroke-width:1.5;" x="224.623227" xlink:href="#m349ef6d3dd" y="123.335686"/>
     <use style="fill:#2ca02c;stroke:#2ca02c;stroke-width:1.5;" x="224.785717" xlink:href="#m349ef6d3dd" y="123.335686"/>
     <use style="fill:#2ca02c;stroke:#2ca02c;stroke-width:1.5;" x="224.948206" xlink:href="#m349ef6d3dd" y="123.335686"/>
     <use style="fill:#2ca02c;stroke:#2ca02c;stroke-width:1.5;" x="225.110696" xlink:href="#m349ef6d3dd" y="123.335686"/>
     <use style="fill:#2ca02c;stroke:#2ca02c;stroke-width:1.5;" x="225.273186" xlink:href="#m349ef6d3dd" y="123.335686"/>
     <use style="fill:#2ca02c;stroke:#2ca02c;stroke-width:1.5;" x="225.435676" xlink:href="#m349ef6d3dd" y="123.335686"/>
     <use style="fill:#2ca02c;stroke:#2ca02c;stroke-width:1.5;" x="225.598165" xlink:href="#m349ef6d3dd" y="123.335686"/>
     <use style="fill:#2ca02c;stroke:#2ca02c;stroke-width:1.5;" x="225.760655" xlink:href="#m349ef6d3dd" y="123.335686"/>
     <use style="fill:#2ca02c;stroke:#2ca02c;stroke-width:1.5;" x="225.923145" xlink:href="#m349ef6d3dd" y="123.335686"/>
     <use style="fill:#2ca02c;stroke:#2ca02c;stroke-width:1.5;" x="226.085635" xlink:href="#m349ef6d3dd" y="123.335686"/>
     <use style="fill:#2ca02c;stroke:#2ca02c;stroke-width:1.5;" x="226.248124" xlink:href="#m349ef6d3dd" y="123.335686"/>
     <use style="fill:#2ca02c;stroke:#2ca02c;stroke-width:1.5;" x="226.410614" xlink:href="#m349ef6d3dd" y="123.335686"/>
     <use style="fill:#2ca02c;stroke:#2ca02c;stroke-width:1.5;" x="226.573104" xlink:href="#m349ef6d3dd" y="123.335686"/>
     <use style="fill:#2ca02c;stroke:#2ca02c;stroke-width:1.5;" x="226.735594" xlink:href="#m349ef6d3dd" y="123.335686"/>
     <use style="fill:#2ca02c;stroke:#2ca02c;stroke-width:1.5;" x="226.898084" xlink:href="#m349ef6d3dd" y="123.335686"/>
     <use style="fill:#2ca02c;stroke:#2ca02c;stroke-width:1.5;" x="227.060573" xlink:href="#m349ef6d3dd" y="123.335686"/>
     <use style="fill:#2ca02c;stroke:#2ca02c;stroke-width:1.5;" x="227.223063" xlink:href="#m349ef6d3dd" y="123.335686"/>
     <use style="fill:#2ca02c;stroke:#2ca02c;stroke-width:1.5;" x="227.385553" xlink:href="#m349ef6d3dd" y="123.335686"/>
     <use style="fill:#2ca02c;stroke:#2ca02c;stroke-width:1.5;" x="227.548043" xlink:href="#m349ef6d3dd" y="123.335686"/>
     <use style="fill:#2ca02c;stroke:#2ca02c;stroke-width:1.5;" x="227.710532" xlink:href="#m349ef6d3dd" y="123.335686"/>
     <use style="fill:#2ca02c;stroke:#2ca02c;stroke-width:1.5;" x="227.873022" xlink:href="#m349ef6d3dd" y="123.335686"/>
     <use style="fill:#2ca02c;stroke:#2ca02c;stroke-width:1.5;" x="228.035512" xlink:href="#m349ef6d3dd" y="123.335686"/>
     <use style="fill:#2ca02c;stroke:#2ca02c;stroke-width:1.5;" x="228.198002" xlink:href="#m349ef6d3dd" y="123.335686"/>
     <use style="fill:#2ca02c;stroke:#2ca02c;stroke-width:1.5;" x="228.360491" xlink:href="#m349ef6d3dd" y="123.335686"/>
     <use style="fill:#2ca02c;stroke:#2ca02c;stroke-width:1.5;" x="228.522981" xlink:href="#m349ef6d3dd" y="123.335686"/>
     <use style="fill:#2ca02c;stroke:#2ca02c;stroke-width:1.5;" x="228.685471" xlink:href="#m349ef6d3dd" y="123.335686"/>
     <use style="fill:#2ca02c;stroke:#2ca02c;stroke-width:1.5;" x="228.847961" xlink:href="#m349ef6d3dd" y="123.335686"/>
     <use style="fill:#2ca02c;stroke:#2ca02c;stroke-width:1.5;" x="229.01045" xlink:href="#m349ef6d3dd" y="123.335686"/>
     <use style="fill:#2ca02c;stroke:#2ca02c;stroke-width:1.5;" x="229.17294" xlink:href="#m349ef6d3dd" y="123.335686"/>
     <use style="fill:#2ca02c;stroke:#2ca02c;stroke-width:1.5;" x="229.33543" xlink:href="#m349ef6d3dd" y="123.335686"/>
     <use style="fill:#2ca02c;stroke:#2ca02c;stroke-width:1.5;" x="229.49792" xlink:href="#m349ef6d3dd" y="123.335686"/>
     <use style="fill:#2ca02c;stroke:#2ca02c;stroke-width:1.5;" x="229.66041" xlink:href="#m349ef6d3dd" y="123.335686"/>
     <use style="fill:#2ca02c;stroke:#2ca02c;stroke-width:1.5;" x="229.822899" xlink:href="#m349ef6d3dd" y="123.335686"/>
     <use style="fill:#2ca02c;stroke:#2ca02c;stroke-width:1.5;" x="229.985389" xlink:href="#m349ef6d3dd" y="123.335686"/>
     <use style="fill:#2ca02c;stroke:#2ca02c;stroke-width:1.5;" x="230.147879" xlink:href="#m349ef6d3dd" y="123.335686"/>
     <use style="fill:#2ca02c;stroke:#2ca02c;stroke-width:1.5;" x="230.310369" xlink:href="#m349ef6d3dd" y="123.335686"/>
     <use style="fill:#2ca02c;stroke:#2ca02c;stroke-width:1.5;" x="230.472858" xlink:href="#m349ef6d3dd" y="123.335686"/>
     <use style="fill:#2ca02c;stroke:#2ca02c;stroke-width:1.5;" x="230.635348" xlink:href="#m349ef6d3dd" y="123.335686"/>
     <use style="fill:#2ca02c;stroke:#2ca02c;stroke-width:1.5;" x="230.797838" xlink:href="#m349ef6d3dd" y="123.335686"/>
     <use style="fill:#2ca02c;stroke:#2ca02c;stroke-width:1.5;" x="230.960328" xlink:href="#m349ef6d3dd" y="123.335686"/>
     <use style="fill:#2ca02c;stroke:#2ca02c;stroke-width:1.5;" x="231.122817" xlink:href="#m349ef6d3dd" y="123.335686"/>
     <use style="fill:#2ca02c;stroke:#2ca02c;stroke-width:1.5;" x="231.285307" xlink:href="#m349ef6d3dd" y="123.335686"/>
     <use style="fill:#2ca02c;stroke:#2ca02c;stroke-width:1.5;" x="231.447797" xlink:href="#m349ef6d3dd" y="123.335686"/>
     <use style="fill:#2ca02c;stroke:#2ca02c;stroke-width:1.5;" x="231.610287" xlink:href="#m349ef6d3dd" y="123.335686"/>
     <use style="fill:#2ca02c;stroke:#2ca02c;stroke-width:1.5;" x="231.772776" xlink:href="#m349ef6d3dd" y="123.335686"/>
     <use style="fill:#2ca02c;stroke:#2ca02c;stroke-width:1.5;" x="231.935266" xlink:href="#m349ef6d3dd" y="123.335686"/>
     <use style="fill:#2ca02c;stroke:#2ca02c;stroke-width:1.5;" x="232.097756" xlink:href="#m349ef6d3dd" y="123.335686"/>
     <use style="fill:#2ca02c;stroke:#2ca02c;stroke-width:1.5;" x="232.260246" xlink:href="#m349ef6d3dd" y="123.335686"/>
     <use style="fill:#2ca02c;stroke:#2ca02c;stroke-width:1.5;" x="232.422735" xlink:href="#m349ef6d3dd" y="123.335686"/>
     <use style="fill:#2ca02c;stroke:#2ca02c;stroke-width:1.5;" x="232.585225" xlink:href="#m349ef6d3dd" y="123.335686"/>
     <use style="fill:#2ca02c;stroke:#2ca02c;stroke-width:1.5;" x="232.747715" xlink:href="#m349ef6d3dd" y="123.335686"/>
     <use style="fill:#2ca02c;stroke:#2ca02c;stroke-width:1.5;" x="232.910205" xlink:href="#m349ef6d3dd" y="123.335686"/>
     <use style="fill:#2ca02c;stroke:#2ca02c;stroke-width:1.5;" x="233.072695" xlink:href="#m349ef6d3dd" y="123.335686"/>
     <use style="fill:#2ca02c;stroke:#2ca02c;stroke-width:1.5;" x="233.235184" xlink:href="#m349ef6d3dd" y="123.335686"/>
     <use style="fill:#2ca02c;stroke:#2ca02c;stroke-width:1.5;" x="233.397674" xlink:href="#m349ef6d3dd" y="123.335686"/>
     <use style="fill:#2ca02c;stroke:#2ca02c;stroke-width:1.5;" x="233.560164" xlink:href="#m349ef6d3dd" y="123.335686"/>
     <use style="fill:#2ca02c;stroke:#2ca02c;stroke-width:1.5;" x="233.722654" xlink:href="#m349ef6d3dd" y="123.335686"/>
     <use style="fill:#2ca02c;stroke:#2ca02c;stroke-width:1.5;" x="233.885143" xlink:href="#m349ef6d3dd" y="123.335686"/>
     <use style="fill:#2ca02c;stroke:#2ca02c;stroke-width:1.5;" x="234.047633" xlink:href="#m349ef6d3dd" y="123.335686"/>
     <use style="fill:#2ca02c;stroke:#2ca02c;stroke-width:1.5;" x="234.210123" xlink:href="#m349ef6d3dd" y="123.335686"/>
     <use style="fill:#2ca02c;stroke:#2ca02c;stroke-width:1.5;" x="234.372613" xlink:href="#m349ef6d3dd" y="123.335686"/>
     <use style="fill:#2ca02c;stroke:#2ca02c;stroke-width:1.5;" x="234.535102" xlink:href="#m349ef6d3dd" y="123.335686"/>
     <use style="fill:#2ca02c;stroke:#2ca02c;stroke-width:1.5;" x="234.697592" xlink:href="#m349ef6d3dd" y="123.335686"/>
     <use style="fill:#2ca02c;stroke:#2ca02c;stroke-width:1.5;" x="234.860082" xlink:href="#m349ef6d3dd" y="123.335686"/>
     <use style="fill:#2ca02c;stroke:#2ca02c;stroke-width:1.5;" x="235.022572" xlink:href="#m349ef6d3dd" y="123.335686"/>
     <use style="fill:#2ca02c;stroke:#2ca02c;stroke-width:1.5;" x="235.185061" xlink:href="#m349ef6d3dd" y="123.335686"/>
     <use style="fill:#2ca02c;stroke:#2ca02c;stroke-width:1.5;" x="235.347551" xlink:href="#m349ef6d3dd" y="123.335686"/>
     <use style="fill:#2ca02c;stroke:#2ca02c;stroke-width:1.5;" x="235.510041" xlink:href="#m349ef6d3dd" y="123.335686"/>
     <use style="fill:#2ca02c;stroke:#2ca02c;stroke-width:1.5;" x="235.672531" xlink:href="#m349ef6d3dd" y="123.335686"/>
     <use style="fill:#2ca02c;stroke:#2ca02c;stroke-width:1.5;" x="235.83502" xlink:href="#m349ef6d3dd" y="123.335686"/>
     <use style="fill:#2ca02c;stroke:#2ca02c;stroke-width:1.5;" x="235.99751" xlink:href="#m349ef6d3dd" y="123.335686"/>
     <use style="fill:#2ca02c;stroke:#2ca02c;stroke-width:1.5;" x="236.16" xlink:href="#m349ef6d3dd" y="123.335686"/>
     <use style="fill:#2ca02c;stroke:#2ca02c;stroke-width:1.5;" x="236.16" xlink:href="#m349ef6d3dd" y="123.335686"/>
     <use style="fill:#2ca02c;stroke:#2ca02c;stroke-width:1.5;" x="236.32249" xlink:href="#m349ef6d3dd" y="123.335686"/>
     <use style="fill:#2ca02c;stroke:#2ca02c;stroke-width:1.5;" x="236.48498" xlink:href="#m349ef6d3dd" y="123.335686"/>
     <use style="fill:#2ca02c;stroke:#2ca02c;stroke-width:1.5;" x="236.647469" xlink:href="#m349ef6d3dd" y="123.335686"/>
     <use style="fill:#2ca02c;stroke:#2ca02c;stroke-width:1.5;" x="236.809959" xlink:href="#m349ef6d3dd" y="123.335686"/>
     <use style="fill:#2ca02c;stroke:#2ca02c;stroke-width:1.5;" x="236.972449" xlink:href="#m349ef6d3dd" y="123.335686"/>
     <use style="fill:#2ca02c;stroke:#2ca02c;stroke-width:1.5;" x="237.134939" xlink:href="#m349ef6d3dd" y="123.335686"/>
     <use style="fill:#2ca02c;stroke:#2ca02c;stroke-width:1.5;" x="237.297428" xlink:href="#m349ef6d3dd" y="123.335686"/>
     <use style="fill:#2ca02c;stroke:#2ca02c;stroke-width:1.5;" x="237.459918" xlink:href="#m349ef6d3dd" y="123.335686"/>
     <use style="fill:#2ca02c;stroke:#2ca02c;stroke-width:1.5;" x="237.622408" xlink:href="#m349ef6d3dd" y="123.335686"/>
     <use style="fill:#2ca02c;stroke:#2ca02c;stroke-width:1.5;" x="237.784898" xlink:href="#m349ef6d3dd" y="123.335686"/>
     <use style="fill:#2ca02c;stroke:#2ca02c;stroke-width:1.5;" x="237.947387" xlink:href="#m349ef6d3dd" y="123.335686"/>
     <use style="fill:#2ca02c;stroke:#2ca02c;stroke-width:1.5;" x="238.109877" xlink:href="#m349ef6d3dd" y="123.335686"/>
     <use style="fill:#2ca02c;stroke:#2ca02c;stroke-width:1.5;" x="238.272367" xlink:href="#m349ef6d3dd" y="123.335686"/>
     <use style="fill:#2ca02c;stroke:#2ca02c;stroke-width:1.5;" x="238.434857" xlink:href="#m349ef6d3dd" y="123.335686"/>
     <use style="fill:#2ca02c;stroke:#2ca02c;stroke-width:1.5;" x="238.597346" xlink:href="#m349ef6d3dd" y="123.335686"/>
     <use style="fill:#2ca02c;stroke:#2ca02c;stroke-width:1.5;" x="238.759836" xlink:href="#m349ef6d3dd" y="123.335686"/>
     <use style="fill:#2ca02c;stroke:#2ca02c;stroke-width:1.5;" x="238.922326" xlink:href="#m349ef6d3dd" y="123.335686"/>
     <use style="fill:#2ca02c;stroke:#2ca02c;stroke-width:1.5;" x="239.084816" xlink:href="#m349ef6d3dd" y="123.335686"/>
     <use style="fill:#2ca02c;stroke:#2ca02c;stroke-width:1.5;" x="239.247305" xlink:href="#m349ef6d3dd" y="123.335686"/>
     <use style="fill:#2ca02c;stroke:#2ca02c;stroke-width:1.5;" x="239.409795" xlink:href="#m349ef6d3dd" y="123.335686"/>
     <use style="fill:#2ca02c;stroke:#2ca02c;stroke-width:1.5;" x="239.572285" xlink:href="#m349ef6d3dd" y="123.335686"/>
     <use style="fill:#2ca02c;stroke:#2ca02c;stroke-width:1.5;" x="239.734775" xlink:href="#m349ef6d3dd" y="123.335686"/>
     <use style="fill:#2ca02c;stroke:#2ca02c;stroke-width:1.5;" x="239.897265" xlink:href="#m349ef6d3dd" y="123.335686"/>
     <use style="fill:#2ca02c;stroke:#2ca02c;stroke-width:1.5;" x="240.059754" xlink:href="#m349ef6d3dd" y="123.335686"/>
     <use style="fill:#2ca02c;stroke:#2ca02c;stroke-width:1.5;" x="240.222244" xlink:href="#m349ef6d3dd" y="123.335686"/>
     <use style="fill:#2ca02c;stroke:#2ca02c;stroke-width:1.5;" x="240.384734" xlink:href="#m349ef6d3dd" y="123.335686"/>
     <use style="fill:#2ca02c;stroke:#2ca02c;stroke-width:1.5;" x="240.547224" xlink:href="#m349ef6d3dd" y="123.335686"/>
     <use style="fill:#2ca02c;stroke:#2ca02c;stroke-width:1.5;" x="240.709713" xlink:href="#m349ef6d3dd" y="123.335686"/>
     <use style="fill:#2ca02c;stroke:#2ca02c;stroke-width:1.5;" x="240.872203" xlink:href="#m349ef6d3dd" y="123.335686"/>
     <use style="fill:#2ca02c;stroke:#2ca02c;stroke-width:1.5;" x="241.034693" xlink:href="#m349ef6d3dd" y="123.335686"/>
     <use style="fill:#2ca02c;stroke:#2ca02c;stroke-width:1.5;" x="241.197183" xlink:href="#m349ef6d3dd" y="123.335686"/>
     <use style="fill:#2ca02c;stroke:#2ca02c;stroke-width:1.5;" x="241.359672" xlink:href="#m349ef6d3dd" y="123.335686"/>
     <use style="fill:#2ca02c;stroke:#2ca02c;stroke-width:1.5;" x="241.522162" xlink:href="#m349ef6d3dd" y="123.335686"/>
     <use style="fill:#2ca02c;stroke:#2ca02c;stroke-width:1.5;" x="241.684652" xlink:href="#m349ef6d3dd" y="123.335686"/>
     <use style="fill:#2ca02c;stroke:#2ca02c;stroke-width:1.5;" x="241.847142" xlink:href="#m349ef6d3dd" y="123.335686"/>
     <use style="fill:#2ca02c;stroke:#2ca02c;stroke-width:1.5;" x="242.009631" xlink:href="#m349ef6d3dd" y="123.335686"/>
     <use style="fill:#2ca02c;stroke:#2ca02c;stroke-width:1.5;" x="242.172121" xlink:href="#m349ef6d3dd" y="123.335686"/>
     <use style="fill:#2ca02c;stroke:#2ca02c;stroke-width:1.5;" x="242.334611" xlink:href="#m349ef6d3dd" y="123.335686"/>
     <use style="fill:#2ca02c;stroke:#2ca02c;stroke-width:1.5;" x="242.497101" xlink:href="#m349ef6d3dd" y="123.335686"/>
     <use style="fill:#2ca02c;stroke:#2ca02c;stroke-width:1.5;" x="242.65959" xlink:href="#m349ef6d3dd" y="123.335686"/>
     <use style="fill:#2ca02c;stroke:#2ca02c;stroke-width:1.5;" x="242.82208" xlink:href="#m349ef6d3dd" y="123.335686"/>
     <use style="fill:#2ca02c;stroke:#2ca02c;stroke-width:1.5;" x="242.98457" xlink:href="#m349ef6d3dd" y="123.335686"/>
     <use style="fill:#2ca02c;stroke:#2ca02c;stroke-width:1.5;" x="243.14706" xlink:href="#m349ef6d3dd" y="123.335686"/>
     <use style="fill:#2ca02c;stroke:#2ca02c;stroke-width:1.5;" x="243.30955" xlink:href="#m349ef6d3dd" y="123.335686"/>
     <use style="fill:#2ca02c;stroke:#2ca02c;stroke-width:1.5;" x="243.472039" xlink:href="#m349ef6d3dd" y="123.335686"/>
     <use style="fill:#2ca02c;stroke:#2ca02c;stroke-width:1.5;" x="243.634529" xlink:href="#m349ef6d3dd" y="123.335686"/>
     <use style="fill:#2ca02c;stroke:#2ca02c;stroke-width:1.5;" x="243.797019" xlink:href="#m349ef6d3dd" y="123.335686"/>
     <use style="fill:#2ca02c;stroke:#2ca02c;stroke-width:1.5;" x="243.959509" xlink:href="#m349ef6d3dd" y="123.335686"/>
     <use style="fill:#2ca02c;stroke:#2ca02c;stroke-width:1.5;" x="244.121998" xlink:href="#m349ef6d3dd" y="123.335686"/>
     <use style="fill:#2ca02c;stroke:#2ca02c;stroke-width:1.5;" x="244.284488" xlink:href="#m349ef6d3dd" y="123.335686"/>
     <use style="fill:#2ca02c;stroke:#2ca02c;stroke-width:1.5;" x="244.446978" xlink:href="#m349ef6d3dd" y="123.335686"/>
     <use style="fill:#2ca02c;stroke:#2ca02c;stroke-width:1.5;" x="244.609468" xlink:href="#m349ef6d3dd" y="123.335686"/>
     <use style="fill:#2ca02c;stroke:#2ca02c;stroke-width:1.5;" x="244.771957" xlink:href="#m349ef6d3dd" y="123.335686"/>
     <use style="fill:#2ca02c;stroke:#2ca02c;stroke-width:1.5;" x="244.934447" xlink:href="#m349ef6d3dd" y="123.335686"/>
     <use style="fill:#2ca02c;stroke:#2ca02c;stroke-width:1.5;" x="245.096937" xlink:href="#m349ef6d3dd" y="123.335686"/>
     <use style="fill:#2ca02c;stroke:#2ca02c;stroke-width:1.5;" x="245.259427" xlink:href="#m349ef6d3dd" y="123.335686"/>
     <use style="fill:#2ca02c;stroke:#2ca02c;stroke-width:1.5;" x="245.421916" xlink:href="#m349ef6d3dd" y="123.335686"/>
     <use style="fill:#2ca02c;stroke:#2ca02c;stroke-width:1.5;" x="245.584406" xlink:href="#m349ef6d3dd" y="123.335686"/>
     <use style="fill:#2ca02c;stroke:#2ca02c;stroke-width:1.5;" x="245.746896" xlink:href="#m349ef6d3dd" y="123.335686"/>
     <use style="fill:#2ca02c;stroke:#2ca02c;stroke-width:1.5;" x="245.909386" xlink:href="#m349ef6d3dd" y="123.335686"/>
     <use style="fill:#2ca02c;stroke:#2ca02c;stroke-width:1.5;" x="246.071876" xlink:href="#m349ef6d3dd" y="123.335686"/>
     <use style="fill:#2ca02c;stroke:#2ca02c;stroke-width:1.5;" x="246.234365" xlink:href="#m349ef6d3dd" y="123.335686"/>
     <use style="fill:#2ca02c;stroke:#2ca02c;stroke-width:1.5;" x="246.396855" xlink:href="#m349ef6d3dd" y="123.335686"/>
     <use style="fill:#2ca02c;stroke:#2ca02c;stroke-width:1.5;" x="246.559345" xlink:href="#m349ef6d3dd" y="123.335686"/>
     <use style="fill:#2ca02c;stroke:#2ca02c;stroke-width:1.5;" x="246.721835" xlink:href="#m349ef6d3dd" y="123.335686"/>
     <use style="fill:#2ca02c;stroke:#2ca02c;stroke-width:1.5;" x="246.884324" xlink:href="#m349ef6d3dd" y="123.335686"/>
     <use style="fill:#2ca02c;stroke:#2ca02c;stroke-width:1.5;" x="247.046814" xlink:href="#m349ef6d3dd" y="123.335686"/>
     <use style="fill:#2ca02c;stroke:#2ca02c;stroke-width:1.5;" x="247.209304" xlink:href="#m349ef6d3dd" y="123.335686"/>
     <use style="fill:#2ca02c;stroke:#2ca02c;stroke-width:1.5;" x="247.371794" xlink:href="#m349ef6d3dd" y="123.335686"/>
     <use style="fill:#2ca02c;stroke:#2ca02c;stroke-width:1.5;" x="247.534283" xlink:href="#m349ef6d3dd" y="123.335686"/>
     <use style="fill:#2ca02c;stroke:#2ca02c;stroke-width:1.5;" x="247.696773" xlink:href="#m349ef6d3dd" y="123.335686"/>
     <use style="fill:#2ca02c;stroke:#2ca02c;stroke-width:1.5;" x="247.859263" xlink:href="#m349ef6d3dd" y="123.335686"/>
     <use style="fill:#2ca02c;stroke:#2ca02c;stroke-width:1.5;" x="248.021753" xlink:href="#m349ef6d3dd" y="123.335686"/>
     <use style="fill:#2ca02c;stroke:#2ca02c;stroke-width:1.5;" x="248.184242" xlink:href="#m349ef6d3dd" y="123.335686"/>
     <use style="fill:#2ca02c;stroke:#2ca02c;stroke-width:1.5;" x="248.346732" xlink:href="#m349ef6d3dd" y="123.335686"/>
     <use style="fill:#2ca02c;stroke:#2ca02c;stroke-width:1.5;" x="248.509222" xlink:href="#m349ef6d3dd" y="123.335686"/>
     <use style="fill:#2ca02c;stroke:#2ca02c;stroke-width:1.5;" x="248.671712" xlink:href="#m349ef6d3dd" y="123.335686"/>
     <use style="fill:#2ca02c;stroke:#2ca02c;stroke-width:1.5;" x="248.834201" xlink:href="#m349ef6d3dd" y="123.335686"/>
     <use style="fill:#2ca02c;stroke:#2ca02c;stroke-width:1.5;" x="248.996691" xlink:href="#m349ef6d3dd" y="123.335686"/>
     <use style="fill:#2ca02c;stroke:#2ca02c;stroke-width:1.5;" x="249.159181" xlink:href="#m349ef6d3dd" y="123.335686"/>
     <use style="fill:#2ca02c;stroke:#2ca02c;stroke-width:1.5;" x="249.321671" xlink:href="#m349ef6d3dd" y="123.335686"/>
     <use style="fill:#2ca02c;stroke:#2ca02c;stroke-width:1.5;" x="249.484161" xlink:href="#m349ef6d3dd" y="123.335686"/>
     <use style="fill:#2ca02c;stroke:#2ca02c;stroke-width:1.5;" x="249.64665" xlink:href="#m349ef6d3dd" y="123.335686"/>
     <use style="fill:#2ca02c;stroke:#2ca02c;stroke-width:1.5;" x="249.80914" xlink:href="#m349ef6d3dd" y="123.335686"/>
     <use style="fill:#2ca02c;stroke:#2ca02c;stroke-width:1.5;" x="249.97163" xlink:href="#m349ef6d3dd" y="123.335686"/>
     <use style="fill:#2ca02c;stroke:#2ca02c;stroke-width:1.5;" x="250.13412" xlink:href="#m349ef6d3dd" y="123.335686"/>
     <use style="fill:#2ca02c;stroke:#2ca02c;stroke-width:1.5;" x="250.296609" xlink:href="#m349ef6d3dd" y="123.335686"/>
    </g>
   </g>
   <g id="PathCollection_2">
    <defs>
     <path d="M -0.5 0.5 
L 0.5 -0.5 
M -0.5 -0.5 
L 0.5 0.5 
" id="m85c78e9d90" style="stroke:#d62728;stroke-width:1.5;"/>
    </defs>
    <g clip-path="url(#p1a170cf955)">
     <use style="fill:#d62728;stroke:#d62728;stroke-width:1.5;" x="236.16" xlink:href="#m85c78e9d90" y="225.720314"/>
     <use style="fill:#d62728;stroke:#d62728;stroke-width:1.5;" x="236.16" xlink:href="#m85c78e9d90" y="225.720314"/>
    </g>
   </g>
   <g id="matplotlib.axis_1">
    <g id="xtick_1">
     <g id="line2d_1">
      <defs>
       <path d="M 0 0 
L 0 3.5 
" id="m1eda97f965" style="stroke:#000000;stroke-width:0.8;"/>
      </defs>
      <g>
       <use style="stroke:#000000;stroke-width:0.8;" x="106.298182" xlink:href="#m1eda97f965" y="307.584"/>
      </g>
     </g>
     <g id="text_1">
      <!-- −0.004 -->
      <g transform="translate(87.794276 322.182437)scale(0.1 -0.1)">
       <defs>
        <path d="M 10.59375 35.5 
L 73.1875 35.5 
L 73.1875 27.203125 
L 10.59375 27.203125 
z
" id="DejaVuSans-8722"/>
        <path d="M 31.78125 66.40625 
Q 24.171875 66.40625 20.328125 58.90625 
Q 16.5 51.421875 16.5 36.375 
Q 16.5 21.390625 20.328125 13.890625 
Q 24.171875 6.390625 31.78125 6.390625 
Q 39.453125 6.390625 43.28125 13.890625 
Q 47.125 21.390625 47.125 36.375 
Q 47.125 51.421875 43.28125 58.90625 
Q 39.453125 66.40625 31.78125 66.40625 
z
M 31.78125 74.21875 
Q 44.046875 74.21875 50.515625 64.515625 
Q 56.984375 54.828125 56.984375 36.375 
Q 56.984375 17.96875 50.515625 8.265625 
Q 44.046875 -1.421875 31.78125 -1.421875 
Q 19.53125 -1.421875 13.0625 8.265625 
Q 6.59375 17.96875 6.59375 36.375 
Q 6.59375 54.828125 13.0625 64.515625 
Q 19.53125 74.21875 31.78125 74.21875 
z
" id="DejaVuSans-48"/>
        <path d="M 10.6875 12.40625 
L 21 12.40625 
L 21 0 
L 10.6875 0 
z
" id="DejaVuSans-46"/>
        <path d="M 37.796875 64.3125 
L 12.890625 25.390625 
L 37.796875 25.390625 
z
M 35.203125 72.90625 
L 47.609375 72.90625 
L 47.609375 25.390625 
L 58.015625 25.390625 
L 58.015625 17.1875 
L 47.609375 17.1875 
L 47.609375 0 
L 37.796875 0 
L 37.796875 17.1875 
L 4.890625 17.1875 
L 4.890625 26.703125 
z
" id="DejaVuSans-52"/>
       </defs>
       <use xlink:href="#DejaVuSans-8722"/>
       <use x="83.789062" xlink:href="#DejaVuSans-48"/>
       <use x="147.412109" xlink:href="#DejaVuSans-46"/>
       <use x="179.199219" xlink:href="#DejaVuSans-48"/>
       <use x="242.822266" xlink:href="#DejaVuSans-48"/>
       <use x="306.445312" xlink:href="#DejaVuSans-52"/>
      </g>
     </g>
    </g>
    <g id="xtick_2">
     <g id="line2d_2">
      <g>
       <use style="stroke:#000000;stroke-width:0.8;" x="171.229091" xlink:href="#m1eda97f965" y="307.584"/>
      </g>
     </g>
     <g id="text_2">
      <!-- −0.002 -->
      <g transform="translate(152.725185 322.182437)scale(0.1 -0.1)">
       <defs>
        <path d="M 19.1875 8.296875 
L 53.609375 8.296875 
L 53.609375 0 
L 7.328125 0 
L 7.328125 8.296875 
Q 12.9375 14.109375 22.625 23.890625 
Q 32.328125 33.6875 34.8125 36.53125 
Q 39.546875 41.84375 41.421875 45.53125 
Q 43.3125 49.21875 43.3125 52.78125 
Q 43.3125 58.59375 39.234375 62.25 
Q 35.15625 65.921875 28.609375 65.921875 
Q 23.96875 65.921875 18.8125 64.3125 
Q 13.671875 62.703125 7.8125 59.421875 
L 7.8125 69.390625 
Q 13.765625 71.78125 18.9375 73 
Q 24.125 74.21875 28.421875 74.21875 
Q 39.75 74.21875 46.484375 68.546875 
Q 53.21875 62.890625 53.21875 53.421875 
Q 53.21875 48.921875 51.53125 44.890625 
Q 49.859375 40.875 45.40625 35.40625 
Q 44.1875 33.984375 37.640625 27.21875 
Q 31.109375 20.453125 19.1875 8.296875 
z
" id="DejaVuSans-50"/>
       </defs>
       <use xlink:href="#DejaVuSans-8722"/>
       <use x="83.789062" xlink:href="#DejaVuSans-48"/>
       <use x="147.412109" xlink:href="#DejaVuSans-46"/>
       <use x="179.199219" xlink:href="#DejaVuSans-48"/>
       <use x="242.822266" xlink:href="#DejaVuSans-48"/>
       <use x="306.445312" xlink:href="#DejaVuSans-50"/>
      </g>
     </g>
    </g>
    <g id="xtick_3">
     <g id="line2d_3">
      <g>
       <use style="stroke:#000000;stroke-width:0.8;" x="236.16" xlink:href="#m1eda97f965" y="307.584"/>
      </g>
     </g>
     <g id="text_3">
      <!-- 0.000 -->
      <g transform="translate(221.845937 322.182437)scale(0.1 -0.1)">
       <use xlink:href="#DejaVuSans-48"/>
       <use x="63.623047" xlink:href="#DejaVuSans-46"/>
       <use x="95.410156" xlink:href="#DejaVuSans-48"/>
       <use x="159.033203" xlink:href="#DejaVuSans-48"/>
       <use x="222.65625" xlink:href="#DejaVuSans-48"/>
      </g>
     </g>
    </g>
    <g id="xtick_4">
     <g id="line2d_4">
      <g>
       <use style="stroke:#000000;stroke-width:0.8;" x="301.090909" xlink:href="#m1eda97f965" y="307.584"/>
      </g>
     </g>
     <g id="text_4">
      <!-- 0.002 -->
      <g transform="translate(286.776847 322.182437)scale(0.1 -0.1)">
       <use xlink:href="#DejaVuSans-48"/>
       <use x="63.623047" xlink:href="#DejaVuSans-46"/>
       <use x="95.410156" xlink:href="#DejaVuSans-48"/>
       <use x="159.033203" xlink:href="#DejaVuSans-48"/>
       <use x="222.65625" xlink:href="#DejaVuSans-50"/>
      </g>
     </g>
    </g>
    <g id="xtick_5">
     <g id="line2d_5">
      <g>
       <use style="stroke:#000000;stroke-width:0.8;" x="366.021818" xlink:href="#m1eda97f965" y="307.584"/>
      </g>
     </g>
     <g id="text_5">
      <!-- 0.004 -->
      <g transform="translate(351.707756 322.182437)scale(0.1 -0.1)">
       <use xlink:href="#DejaVuSans-48"/>
       <use x="63.623047" xlink:href="#DejaVuSans-46"/>
       <use x="95.410156" xlink:href="#DejaVuSans-48"/>
       <use x="159.033203" xlink:href="#DejaVuSans-48"/>
       <use x="222.65625" xlink:href="#DejaVuSans-52"/>
      </g>
     </g>
    </g>
    <g id="text_6">
     <!-- Input angle (radians) -->
     <g transform="translate(183.740469 335.860562)scale(0.1 -0.1)">
      <defs>
       <path d="M 9.8125 72.90625 
L 19.671875 72.90625 
L 19.671875 0 
L 9.8125 0 
z
" id="DejaVuSans-73"/>
       <path d="M 54.890625 33.015625 
L 54.890625 0 
L 45.90625 0 
L 45.90625 32.71875 
Q 45.90625 40.484375 42.875 44.328125 
Q 39.84375 48.1875 33.796875 48.1875 
Q 26.515625 48.1875 22.3125 43.546875 
Q 18.109375 38.921875 18.109375 30.90625 
L 18.109375 0 
L 9.078125 0 
L 9.078125 54.6875 
L 18.109375 54.6875 
L 18.109375 46.1875 
Q 21.34375 51.125 25.703125 53.5625 
Q 30.078125 56 35.796875 56 
Q 45.21875 56 50.046875 50.171875 
Q 54.890625 44.34375 54.890625 33.015625 
z
" id="DejaVuSans-110"/>
       <path d="M 18.109375 8.203125 
L 18.109375 -20.796875 
L 9.078125 -20.796875 
L 9.078125 54.6875 
L 18.109375 54.6875 
L 18.109375 46.390625 
Q 20.953125 51.265625 25.265625 53.625 
Q 29.59375 56 35.59375 56 
Q 45.5625 56 51.78125 48.09375 
Q 58.015625 40.1875 58.015625 27.296875 
Q 58.015625 14.40625 51.78125 6.484375 
Q 45.5625 -1.421875 35.59375 -1.421875 
Q 29.59375 -1.421875 25.265625 0.953125 
Q 20.953125 3.328125 18.109375 8.203125 
z
M 48.6875 27.296875 
Q 48.6875 37.203125 44.609375 42.84375 
Q 40.53125 48.484375 33.40625 48.484375 
Q 26.265625 48.484375 22.1875 42.84375 
Q 18.109375 37.203125 18.109375 27.296875 
Q 18.109375 17.390625 22.1875 11.75 
Q 26.265625 6.109375 33.40625 6.109375 
Q 40.53125 6.109375 44.609375 11.75 
Q 48.6875 17.390625 48.6875 27.296875 
z
" id="DejaVuSans-112"/>
       <path d="M 8.5 21.578125 
L 8.5 54.6875 
L 17.484375 54.6875 
L 17.484375 21.921875 
Q 17.484375 14.15625 20.5 10.265625 
Q 23.53125 6.390625 29.59375 6.390625 
Q 36.859375 6.390625 41.078125 11.03125 
Q 45.3125 15.671875 45.3125 23.6875 
L 45.3125 54.6875 
L 54.296875 54.6875 
L 54.296875 0 
L 45.3125 0 
L 45.3125 8.40625 
Q 42.046875 3.421875 37.71875 1 
Q 33.40625 -1.421875 27.6875 -1.421875 
Q 18.265625 -1.421875 13.375 4.4375 
Q 8.5 10.296875 8.5 21.578125 
z
M 31.109375 56 
z
" id="DejaVuSans-117"/>
       <path d="M 18.3125 70.21875 
L 18.3125 54.6875 
L 36.8125 54.6875 
L 36.8125 47.703125 
L 18.3125 47.703125 
L 18.3125 18.015625 
Q 18.3125 11.328125 20.140625 9.421875 
Q 21.96875 7.515625 27.59375 7.515625 
L 36.8125 7.515625 
L 36.8125 0 
L 27.59375 0 
Q 17.1875 0 13.234375 3.875 
Q 9.28125 7.765625 9.28125 18.015625 
L 9.28125 47.703125 
L 2.6875 47.703125 
L 2.6875 54.6875 
L 9.28125 54.6875 
L 9.28125 70.21875 
z
" id="DejaVuSans-116"/>
       <path id="DejaVuSans-32"/>
       <path d="M 34.28125 27.484375 
Q 23.390625 27.484375 19.1875 25 
Q 14.984375 22.515625 14.984375 16.5 
Q 14.984375 11.71875 18.140625 8.90625 
Q 21.296875 6.109375 26.703125 6.109375 
Q 34.1875 6.109375 38.703125 11.40625 
Q 43.21875 16.703125 43.21875 25.484375 
L 43.21875 27.484375 
z
M 52.203125 31.203125 
L 52.203125 0 
L 43.21875 0 
L 43.21875 8.296875 
Q 40.140625 3.328125 35.546875 0.953125 
Q 30.953125 -1.421875 24.3125 -1.421875 
Q 15.921875 -1.421875 10.953125 3.296875 
Q 6 8.015625 6 15.921875 
Q 6 25.140625 12.171875 29.828125 
Q 18.359375 34.515625 30.609375 34.515625 
L 43.21875 34.515625 
L 43.21875 35.40625 
Q 43.21875 41.609375 39.140625 45 
Q 35.0625 48.390625 27.6875 48.390625 
Q 23 48.390625 18.546875 47.265625 
Q 14.109375 46.140625 10.015625 43.890625 
L 10.015625 52.203125 
Q 14.9375 54.109375 19.578125 55.046875 
Q 24.21875 56 28.609375 56 
Q 40.484375 56 46.34375 49.84375 
Q 52.203125 43.703125 52.203125 31.203125 
z
" id="DejaVuSans-97"/>
       <path d="M 45.40625 27.984375 
Q 45.40625 37.75 41.375 43.109375 
Q 37.359375 48.484375 30.078125 48.484375 
Q 22.859375 48.484375 18.828125 43.109375 
Q 14.796875 37.75 14.796875 27.984375 
Q 14.796875 18.265625 18.828125 12.890625 
Q 22.859375 7.515625 30.078125 7.515625 
Q 37.359375 7.515625 41.375 12.890625 
Q 45.40625 18.265625 45.40625 27.984375 
z
M 54.390625 6.78125 
Q 54.390625 -7.171875 48.1875 -13.984375 
Q 42 -20.796875 29.203125 -20.796875 
Q 24.46875 -20.796875 20.265625 -20.09375 
Q 16.0625 -19.390625 12.109375 -17.921875 
L 12.109375 -9.1875 
Q 16.0625 -11.328125 19.921875 -12.34375 
Q 23.78125 -13.375 27.78125 -13.375 
Q 36.625 -13.375 41.015625 -8.765625 
Q 45.40625 -4.15625 45.40625 5.171875 
L 45.40625 9.625 
Q 42.625 4.78125 38.28125 2.390625 
Q 33.9375 0 27.875 0 
Q 17.828125 0 11.671875 7.65625 
Q 5.515625 15.328125 5.515625 27.984375 
Q 5.515625 40.671875 11.671875 48.328125 
Q 17.828125 56 27.875 56 
Q 33.9375 56 38.28125 53.609375 
Q 42.625 51.21875 45.40625 46.390625 
L 45.40625 54.6875 
L 54.390625 54.6875 
z
" id="DejaVuSans-103"/>
       <path d="M 9.421875 75.984375 
L 18.40625 75.984375 
L 18.40625 0 
L 9.421875 0 
z
" id="DejaVuSans-108"/>
       <path d="M 56.203125 29.59375 
L 56.203125 25.203125 
L 14.890625 25.203125 
Q 15.484375 15.921875 20.484375 11.0625 
Q 25.484375 6.203125 34.421875 6.203125 
Q 39.59375 6.203125 44.453125 7.46875 
Q 49.3125 8.734375 54.109375 11.28125 
L 54.109375 2.78125 
Q 49.265625 0.734375 44.1875 -0.34375 
Q 39.109375 -1.421875 33.890625 -1.421875 
Q 20.796875 -1.421875 13.15625 6.1875 
Q 5.515625 13.8125 5.515625 26.8125 
Q 5.515625 40.234375 12.765625 48.109375 
Q 20.015625 56 32.328125 56 
Q 43.359375 56 49.78125 48.890625 
Q 56.203125 41.796875 56.203125 29.59375 
z
M 47.21875 32.234375 
Q 47.125 39.59375 43.09375 43.984375 
Q 39.0625 48.390625 32.421875 48.390625 
Q 24.90625 48.390625 20.390625 44.140625 
Q 15.875 39.890625 15.1875 32.171875 
z
" id="DejaVuSans-101"/>
       <path d="M 31 75.875 
Q 24.46875 64.65625 21.28125 53.65625 
Q 18.109375 42.671875 18.109375 31.390625 
Q 18.109375 20.125 21.3125 9.0625 
Q 24.515625 -2 31 -13.1875 
L 23.1875 -13.1875 
Q 15.875 -1.703125 12.234375 9.375 
Q 8.59375 20.453125 8.59375 31.390625 
Q 8.59375 42.28125 12.203125 53.3125 
Q 15.828125 64.359375 23.1875 75.875 
z
" id="DejaVuSans-40"/>
       <path d="M 41.109375 46.296875 
Q 39.59375 47.171875 37.8125 47.578125 
Q 36.03125 48 33.890625 48 
Q 26.265625 48 22.1875 43.046875 
Q 18.109375 38.09375 18.109375 28.8125 
L 18.109375 0 
L 9.078125 0 
L 9.078125 54.6875 
L 18.109375 54.6875 
L 18.109375 46.1875 
Q 20.953125 51.171875 25.484375 53.578125 
Q 30.03125 56 36.53125 56 
Q 37.453125 56 38.578125 55.875 
Q 39.703125 55.765625 41.0625 55.515625 
z
" id="DejaVuSans-114"/>
       <path d="M 45.40625 46.390625 
L 45.40625 75.984375 
L 54.390625 75.984375 
L 54.390625 0 
L 45.40625 0 
L 45.40625 8.203125 
Q 42.578125 3.328125 38.25 0.953125 
Q 33.9375 -1.421875 27.875 -1.421875 
Q 17.96875 -1.421875 11.734375 6.484375 
Q 5.515625 14.40625 5.515625 27.296875 
Q 5.515625 40.1875 11.734375 48.09375 
Q 17.96875 56 27.875 56 
Q 33.9375 56 38.25 53.625 
Q 42.578125 51.265625 45.40625 46.390625 
z
M 14.796875 27.296875 
Q 14.796875 17.390625 18.875 11.75 
Q 22.953125 6.109375 30.078125 6.109375 
Q 37.203125 6.109375 41.296875 11.75 
Q 45.40625 17.390625 45.40625 27.296875 
Q 45.40625 37.203125 41.296875 42.84375 
Q 37.203125 48.484375 30.078125 48.484375 
Q 22.953125 48.484375 18.875 42.84375 
Q 14.796875 37.203125 14.796875 27.296875 
z
" id="DejaVuSans-100"/>
       <path d="M 9.421875 54.6875 
L 18.40625 54.6875 
L 18.40625 0 
L 9.421875 0 
z
M 9.421875 75.984375 
L 18.40625 75.984375 
L 18.40625 64.59375 
L 9.421875 64.59375 
z
" id="DejaVuSans-105"/>
       <path d="M 44.28125 53.078125 
L 44.28125 44.578125 
Q 40.484375 46.53125 36.375 47.5 
Q 32.28125 48.484375 27.875 48.484375 
Q 21.1875 48.484375 17.84375 46.4375 
Q 14.5 44.390625 14.5 40.28125 
Q 14.5 37.15625 16.890625 35.375 
Q 19.28125 33.59375 26.515625 31.984375 
L 29.59375 31.296875 
Q 39.15625 29.25 43.1875 25.515625 
Q 47.21875 21.78125 47.21875 15.09375 
Q 47.21875 7.46875 41.1875 3.015625 
Q 35.15625 -1.421875 24.609375 -1.421875 
Q 20.21875 -1.421875 15.453125 -0.5625 
Q 10.6875 0.296875 5.421875 2 
L 5.421875 11.28125 
Q 10.40625 8.6875 15.234375 7.390625 
Q 20.0625 6.109375 24.8125 6.109375 
Q 31.15625 6.109375 34.5625 8.28125 
Q 37.984375 10.453125 37.984375 14.40625 
Q 37.984375 18.0625 35.515625 20.015625 
Q 33.0625 21.96875 24.703125 23.78125 
L 21.578125 24.515625 
Q 13.234375 26.265625 9.515625 29.90625 
Q 5.8125 33.546875 5.8125 39.890625 
Q 5.8125 47.609375 11.28125 51.796875 
Q 16.75 56 26.8125 56 
Q 31.78125 56 36.171875 55.265625 
Q 40.578125 54.546875 44.28125 53.078125 
z
" id="DejaVuSans-115"/>
       <path d="M 8.015625 75.875 
L 15.828125 75.875 
Q 23.140625 64.359375 26.78125 53.3125 
Q 30.421875 42.28125 30.421875 31.390625 
Q 30.421875 20.453125 26.78125 9.375 
Q 23.140625 -1.703125 15.828125 -13.1875 
L 8.015625 -13.1875 
Q 14.5 -2 17.703125 9.0625 
Q 20.90625 20.125 20.90625 31.390625 
Q 20.90625 42.671875 17.703125 53.65625 
Q 14.5 64.65625 8.015625 75.875 
z
" id="DejaVuSans-41"/>
      </defs>
      <use xlink:href="#DejaVuSans-73"/>
      <use x="29.492188" xlink:href="#DejaVuSans-110"/>
      <use x="92.871094" xlink:href="#DejaVuSans-112"/>
      <use x="156.347656" xlink:href="#DejaVuSans-117"/>
      <use x="219.726562" xlink:href="#DejaVuSans-116"/>
      <use x="258.935547" xlink:href="#DejaVuSans-32"/>
      <use x="290.722656" xlink:href="#DejaVuSans-97"/>
      <use x="352.001953" xlink:href="#DejaVuSans-110"/>
      <use x="415.380859" xlink:href="#DejaVuSans-103"/>
      <use x="478.857422" xlink:href="#DejaVuSans-108"/>
      <use x="506.640625" xlink:href="#DejaVuSans-101"/>
      <use x="568.164062" xlink:href="#DejaVuSans-32"/>
      <use x="599.951172" xlink:href="#DejaVuSans-40"/>
      <use x="638.964844" xlink:href="#DejaVuSans-114"/>
      <use x="680.078125" xlink:href="#DejaVuSans-97"/>
      <use x="741.357422" xlink:href="#DejaVuSans-100"/>
      <use x="804.833984" xlink:href="#DejaVuSans-105"/>
      <use x="832.617188" xlink:href="#DejaVuSans-97"/>
      <use x="893.896484" xlink:href="#DejaVuSans-110"/>
      <use x="957.275391" xlink:href="#DejaVuSans-115"/>
      <use x="1009.375" xlink:href="#DejaVuSans-41"/>
     </g>
    </g>
   </g>
   <g id="matplotlib.axis_2">
    <g id="ytick_1">
     <g id="line2d_6">
      <defs>
       <path d="M 0 0 
L -3.5 0 
" id="md9513b8047" style="stroke:#000000;stroke-width:0.8;"/>
      </defs>
      <g>
       <use style="stroke:#000000;stroke-width:0.8;" x="57.6" xlink:href="#md9513b8047" y="276.912627"/>
      </g>
     </g>
     <g id="text_7">
      <!-- −1.0 -->
      <g transform="translate(26.317187 280.711846)scale(0.1 -0.1)">
       <defs>
        <path d="M 12.40625 8.296875 
L 28.515625 8.296875 
L 28.515625 63.921875 
L 10.984375 60.40625 
L 10.984375 69.390625 
L 28.421875 72.90625 
L 38.28125 72.90625 
L 38.28125 8.296875 
L 54.390625 8.296875 
L 54.390625 0 
L 12.40625 0 
z
" id="DejaVuSans-49"/>
       </defs>
       <use xlink:href="#DejaVuSans-8722"/>
       <use x="83.789062" xlink:href="#DejaVuSans-49"/>
       <use x="147.412109" xlink:href="#DejaVuSans-46"/>
       <use x="179.199219" xlink:href="#DejaVuSans-48"/>
      </g>
     </g>
    </g>
    <g id="ytick_2">
     <g id="line2d_7">
      <g>
       <use style="stroke:#000000;stroke-width:0.8;" x="57.6" xlink:href="#md9513b8047" y="225.720314"/>
      </g>
     </g>
     <g id="text_8">
      <!-- −0.5 -->
      <g transform="translate(26.317187 229.519532)scale(0.1 -0.1)">
       <defs>
        <path d="M 10.796875 72.90625 
L 49.515625 72.90625 
L 49.515625 64.59375 
L 19.828125 64.59375 
L 19.828125 46.734375 
Q 21.96875 47.46875 24.109375 47.828125 
Q 26.265625 48.1875 28.421875 48.1875 
Q 40.625 48.1875 47.75 41.5 
Q 54.890625 34.8125 54.890625 23.390625 
Q 54.890625 11.625 47.5625 5.09375 
Q 40.234375 -1.421875 26.90625 -1.421875 
Q 22.3125 -1.421875 17.546875 -0.640625 
Q 12.796875 0.140625 7.71875 1.703125 
L 7.71875 11.625 
Q 12.109375 9.234375 16.796875 8.0625 
Q 21.484375 6.890625 26.703125 6.890625 
Q 35.15625 6.890625 40.078125 11.328125 
Q 45.015625 15.765625 45.015625 23.390625 
Q 45.015625 31 40.078125 35.4375 
Q 35.15625 39.890625 26.703125 39.890625 
Q 22.75 39.890625 18.8125 39.015625 
Q 14.890625 38.140625 10.796875 36.28125 
z
" id="DejaVuSans-53"/>
       </defs>
       <use xlink:href="#DejaVuSans-8722"/>
       <use x="83.789062" xlink:href="#DejaVuSans-48"/>
       <use x="147.412109" xlink:href="#DejaVuSans-46"/>
       <use x="179.199219" xlink:href="#DejaVuSans-53"/>
      </g>
     </g>
    </g>
    <g id="ytick_3">
     <g id="line2d_8">
      <g>
       <use style="stroke:#000000;stroke-width:0.8;" x="57.6" xlink:href="#md9513b8047" y="174.528"/>
      </g>
     </g>
     <g id="text_9">
      <!-- 0.0 -->
      <g transform="translate(34.696875 178.327219)scale(0.1 -0.1)">
       <use xlink:href="#DejaVuSans-48"/>
       <use x="63.623047" xlink:href="#DejaVuSans-46"/>
       <use x="95.410156" xlink:href="#DejaVuSans-48"/>
      </g>
     </g>
    </g>
    <g id="ytick_4">
     <g id="line2d_9">
      <g>
       <use style="stroke:#000000;stroke-width:0.8;" x="57.6" xlink:href="#md9513b8047" y="123.335686"/>
      </g>
     </g>
     <g id="text_10">
      <!-- 0.5 -->
      <g transform="translate(34.696875 127.134905)scale(0.1 -0.1)">
       <use xlink:href="#DejaVuSans-48"/>
       <use x="63.623047" xlink:href="#DejaVuSans-46"/>
       <use x="95.410156" xlink:href="#DejaVuSans-53"/>
      </g>
     </g>
    </g>
    <g id="ytick_5">
     <g id="line2d_10">
      <g>
       <use style="stroke:#000000;stroke-width:0.8;" x="57.6" xlink:href="#md9513b8047" y="72.143373"/>
      </g>
     </g>
     <g id="text_11">
      <!-- 1.0 -->
      <g transform="translate(34.696875 75.942591)scale(0.1 -0.1)">
       <use xlink:href="#DejaVuSans-49"/>
       <use x="63.623047" xlink:href="#DejaVuSans-46"/>
       <use x="95.410156" xlink:href="#DejaVuSans-48"/>
      </g>
     </g>
    </g>
    <g id="text_12">
     <!-- Geodesic distance derivative -->
     <g transform="translate(20.2375 247.000656)rotate(-90)scale(0.1 -0.1)">
      <defs>
       <path d="M 59.515625 10.40625 
L 59.515625 29.984375 
L 43.40625 29.984375 
L 43.40625 38.09375 
L 69.28125 38.09375 
L 69.28125 6.78125 
Q 63.578125 2.734375 56.6875 0.65625 
Q 49.8125 -1.421875 42 -1.421875 
Q 24.90625 -1.421875 15.25 8.5625 
Q 5.609375 18.5625 5.609375 36.375 
Q 5.609375 54.25 15.25 64.234375 
Q 24.90625 74.21875 42 74.21875 
Q 49.125 74.21875 55.546875 72.453125 
Q 61.96875 70.703125 67.390625 67.28125 
L 67.390625 56.78125 
Q 61.921875 61.421875 55.765625 63.765625 
Q 49.609375 66.109375 42.828125 66.109375 
Q 29.4375 66.109375 22.71875 58.640625 
Q 16.015625 51.171875 16.015625 36.375 
Q 16.015625 21.625 22.71875 14.15625 
Q 29.4375 6.6875 42.828125 6.6875 
Q 48.046875 6.6875 52.140625 7.59375 
Q 56.25 8.5 59.515625 10.40625 
z
" id="DejaVuSans-71"/>
       <path d="M 30.609375 48.390625 
Q 23.390625 48.390625 19.1875 42.75 
Q 14.984375 37.109375 14.984375 27.296875 
Q 14.984375 17.484375 19.15625 11.84375 
Q 23.34375 6.203125 30.609375 6.203125 
Q 37.796875 6.203125 41.984375 11.859375 
Q 46.1875 17.53125 46.1875 27.296875 
Q 46.1875 37.015625 41.984375 42.703125 
Q 37.796875 48.390625 30.609375 48.390625 
z
M 30.609375 56 
Q 42.328125 56 49.015625 48.375 
Q 55.71875 40.765625 55.71875 27.296875 
Q 55.71875 13.875 49.015625 6.21875 
Q 42.328125 -1.421875 30.609375 -1.421875 
Q 18.84375 -1.421875 12.171875 6.21875 
Q 5.515625 13.875 5.515625 27.296875 
Q 5.515625 40.765625 12.171875 48.375 
Q 18.84375 56 30.609375 56 
z
" id="DejaVuSans-111"/>
       <path d="M 48.78125 52.59375 
L 48.78125 44.1875 
Q 44.96875 46.296875 41.140625 47.34375 
Q 37.3125 48.390625 33.40625 48.390625 
Q 24.65625 48.390625 19.8125 42.84375 
Q 14.984375 37.3125 14.984375 27.296875 
Q 14.984375 17.28125 19.8125 11.734375 
Q 24.65625 6.203125 33.40625 6.203125 
Q 37.3125 6.203125 41.140625 7.25 
Q 44.96875 8.296875 48.78125 10.40625 
L 48.78125 2.09375 
Q 45.015625 0.34375 40.984375 -0.53125 
Q 36.96875 -1.421875 32.421875 -1.421875 
Q 20.0625 -1.421875 12.78125 6.34375 
Q 5.515625 14.109375 5.515625 27.296875 
Q 5.515625 40.671875 12.859375 48.328125 
Q 20.21875 56 33.015625 56 
Q 37.15625 56 41.109375 55.140625 
Q 45.0625 54.296875 48.78125 52.59375 
z
" id="DejaVuSans-99"/>
       <path d="M 2.984375 54.6875 
L 12.5 54.6875 
L 29.59375 8.796875 
L 46.6875 54.6875 
L 56.203125 54.6875 
L 35.6875 0 
L 23.484375 0 
z
" id="DejaVuSans-118"/>
      </defs>
      <use xlink:href="#DejaVuSans-71"/>
      <use x="77.490234" xlink:href="#DejaVuSans-101"/>
      <use x="139.013672" xlink:href="#DejaVuSans-111"/>
      <use x="200.195312" xlink:href="#DejaVuSans-100"/>
      <use x="263.671875" xlink:href="#DejaVuSans-101"/>
      <use x="325.195312" xlink:href="#DejaVuSans-115"/>
      <use x="377.294922" xlink:href="#DejaVuSans-105"/>
      <use x="405.078125" xlink:href="#DejaVuSans-99"/>
      <use x="460.058594" xlink:href="#DejaVuSans-32"/>
      <use x="491.845703" xlink:href="#DejaVuSans-100"/>
      <use x="555.322266" xlink:href="#DejaVuSans-105"/>
      <use x="583.105469" xlink:href="#DejaVuSans-115"/>
      <use x="635.205078" xlink:href="#DejaVuSans-116"/>
      <use x="674.414062" xlink:href="#DejaVuSans-97"/>
      <use x="735.693359" xlink:href="#DejaVuSans-110"/>
      <use x="799.072266" xlink:href="#DejaVuSans-99"/>
      <use x="854.052734" xlink:href="#DejaVuSans-101"/>
      <use x="915.576172" xlink:href="#DejaVuSans-32"/>
      <use x="947.363281" xlink:href="#DejaVuSans-100"/>
      <use x="1010.839844" xlink:href="#DejaVuSans-101"/>
      <use x="1072.363281" xlink:href="#DejaVuSans-114"/>
      <use x="1113.476562" xlink:href="#DejaVuSans-105"/>
      <use x="1141.259766" xlink:href="#DejaVuSans-118"/>
      <use x="1200.439453" xlink:href="#DejaVuSans-97"/>
      <use x="1261.71875" xlink:href="#DejaVuSans-116"/>
      <use x="1300.927734" xlink:href="#DejaVuSans-105"/>
      <use x="1328.710938" xlink:href="#DejaVuSans-118"/>
      <use x="1387.890625" xlink:href="#DejaVuSans-101"/>
     </g>
    </g>
   </g>
   <g id="line2d_11">
    <path clip-path="url(#p1a170cf955)" d="M 73.832727 276.842759 
L 73.995217 277.230561 
L 74.970156 276.613118 
L 75.132645 277.004069 
L 75.295135 276.900672 
L 75.457625 277.297372 
L 76.595053 276.569985 
L 76.757543 276.969479 
L 76.920033 276.865052 
L 77.082523 277.27052 
L 78.057461 276.640836 
L 78.219951 277.049789 
L 78.54493 276.838853 
L 78.70742 277.253494 
L 79.682359 276.617432 
L 79.844848 277.035753 
L 80.169828 276.822645 
L 80.332318 277.24694 
L 81.307256 276.604287 
L 81.469746 277.032434 
L 81.794726 276.817097 
L 81.957215 277.251529 
L 82.932154 276.602048 
L 83.094644 277.040562 
L 83.419623 276.822889 
L 83.582113 277.267933 
L 84.557052 276.611458 
L 84.719541 277.060811 
L 85.044521 276.840781 
L 85.207011 277.297006 
L 86.344439 276.522635 
L 86.506929 276.982807 
L 86.669419 276.871557 
L 86.831908 277.339541 
L 87.969337 276.556437 
L 88.131826 277.028613 
L 88.456806 276.80358 
L 88.619296 277.283324 
L 89.756724 276.49117 
L 89.919214 276.975362 
L 90.081704 276.861543 
L 90.244193 277.354358 
L 91.381622 276.552812 
L 91.544111 277.0504 
L 91.869091 276.820008 
L 92.031581 277.325956 
L 93.169009 276.514695 
L 93.331499 277.025721 
L 93.656478 276.792522 
L 93.818968 277.312335 
L 94.956396 276.491017 
L 95.118886 277.01625 
L 95.443866 276.780097 
L 95.606355 277.314642 
L 96.743784 276.482858 
L 96.906274 277.02317 
L 97.231253 276.783954 
L 97.393743 277.334122 
L 98.531171 276.491463 
L 98.693661 277.047763 
L 99.01864 276.805405 
L 99.18113 277.372153 
L 100.318559 276.518186 
L 100.481048 277.091543 
L 100.806028 276.845883 
L 100.968518 277.430286 
L 102.268436 276.440854 
L 102.430925 277.031494 
L 102.755905 276.782404 
L 102.918395 277.384737 
L 104.055823 276.506713 
L 104.218313 277.116698 
L 104.543292 276.86402 
L 104.705782 277.486479 
L 106.0057 276.468352 
L 106.16819 277.098073 
L 106.49317 276.841648 
L 106.655659 277.484661 
L 107.955577 276.451216 
L 108.118067 277.102076 
L 108.443047 276.84174 
L 108.605536 277.506789 
L 109.905455 276.457331 
L 110.067944 277.130881 
L 110.392924 276.866443 
L 110.555414 277.55517 
L 112.017821 276.355631 
L 112.180311 277.052523 
L 112.505291 276.783777 
L 112.667781 277.496915 
L 113.967699 276.413038 
L 114.130188 277.136227 
L 114.455168 276.862958 
L 114.617658 277.603576 
L 116.080066 276.363369 
L 116.242555 277.113793 
L 116.567535 276.835771 
L 116.730025 277.604955 
L 118.192432 276.342791 
L 118.354922 277.122703 
L 118.679902 276.839689 
L 118.842391 277.639862 
L 120.304799 276.354532 
L 120.467289 277.16652 
L 120.954758 276.734047 
L 121.117248 277.566594 
L 122.579656 276.256775 
L 122.742146 277.102321 
L 123.067125 276.808413 
L 123.229615 277.677747 
L 124.854513 276.193576 
L 125.017002 277.075823 
L 125.341982 276.775972 
L 125.504472 277.684094 
L 127.129369 276.169325 
L 127.291859 277.091849 
L 127.616839 276.785669 
L 127.779328 277.736466 
L 129.404226 276.189128 
L 129.566716 277.156023 
L 130.054185 276.686703 
L 130.216675 277.682861 
L 131.841572 276.10075 
L 132.004062 277.11499 
L 132.329042 276.794914 
L 132.491532 277.843274 
L 134.278919 276.061986 
L 134.441409 277.12883 
L 134.766388 276.80106 
L 134.928878 277.905618 
L 136.716265 276.080349 
L 136.878755 277.206016 
L 137.366224 276.701868 
L 137.528714 277.867294 
L 139.316102 275.994583 
L 139.478591 277.184083 
L 139.966061 276.666485 
L 140.12855 277.900455 
L 141.915938 275.976434 
L 142.078428 277.238116 
L 142.565897 276.705926 
L 142.728387 278.017674 
L 144.678264 275.857897 
L 144.840753 277.199047 
L 145.328223 276.650985 
L 145.490713 278.048858 
L 147.44059 275.822612 
L 147.603079 277.254934 
L 148.090549 276.689468 
L 148.253038 278.186606 
L 150.202916 275.887336 
L 150.365405 277.425221 
L 151.015364 276.645694 
L 151.177854 278.254919 
L 153.290221 275.676619 
L 153.452711 277.330729 
L 154.10267 276.52286 
L 154.26516 278.259971 
L 156.377527 275.584348 
L 156.540016 277.375766 
L 157.189975 276.536189 
L 157.352465 278.42545 
L 159.627322 275.426364 
L 159.789812 277.377621 
L 160.439771 276.502319 
L 160.60226 278.570423 
L 162.877117 275.437959 
L 163.039607 277.583633 
L 163.852056 276.438559 
L 164.014545 278.720583 
L 166.451892 275.20058 
L 166.614382 277.575113 
L 167.42683 276.371296 
L 167.58932 278.914683 
L 170.189156 274.956909 
L 170.351646 277.613963 
L 171.164095 276.34129 
L 171.326585 279.21238 
L 174.088911 274.752136 
L 174.2514 277.768078 
L 175.063849 276.413215 
L 175.226339 279.708741 
L 178.313645 274.379585 
L 178.476134 277.857822 
L 179.451073 276.111399 
L 179.613563 279.956384 
L 182.863358 273.897303 
L 183.025848 277.999427 
L 184.000786 276.100872 
L 184.163276 280.726654 
L 187.738051 273.425504 
L 187.900541 278.425315 
L 189.037969 275.97655 
L 189.200459 281.759385 
L 193.262703 272.483324 
L 193.425192 278.849995 
L 194.725111 275.676686 
L 194.8876 283.352627 
L 199.599803 270.927778 
L 199.762293 279.659322 
L 201.387191 274.965959 
L 201.549681 286.296326 
L 207.236822 267.930639 
L 207.399312 281.774178 
L 209.511679 273.897333 
L 209.674169 295.488 
L 217.961147 257.641619 
L 218.123636 291.018957 
L 221.860901 266.881187 
M 250.459099 82.174813 
L 254.196364 58.037043 
L 254.358853 91.414381 
L 262.645831 53.568 
L 262.808321 75.158667 
L 264.920688 67.281822 
L 265.083178 81.125361 
L 270.770319 62.759674 
L 270.932809 74.090041 
L 272.557707 69.396678 
L 272.720197 78.128222 
L 277.4324 65.703373 
L 277.594889 73.379314 
L 278.894808 70.206005 
L 279.057297 76.572676 
L 283.119541 67.296615 
L 283.282031 73.07945 
L 284.419459 70.630685 
L 284.581949 75.630496 
L 288.156724 68.329346 
L 288.319214 72.955128 
L 289.294152 71.056573 
L 289.456642 75.158697 
L 292.706437 69.099616 
L 292.868927 72.944601 
L 293.843866 71.198178 
L 294.006355 74.676415 
L 297.093661 69.347259 
L 297.256151 72.642785 
L 298.0686 71.287922 
L 298.231089 74.303864 
L 300.993415 69.84362 
L 301.155905 72.71471 
L 301.968354 71.442037 
L 302.130844 74.099091 
L 304.73068 70.141317 
L 304.89317 72.684704 
L 305.705618 71.480887 
L 305.868108 73.85542 
L 308.305455 70.335417 
L 308.467944 72.617441 
L 309.280393 71.472367 
L 309.442883 73.618041 
L 311.71774 70.485577 
L 311.880229 72.553681 
L 312.530188 71.678379 
L 312.692678 73.629636 
L 314.967535 70.63055 
L 315.130025 72.519811 
L 315.779984 71.680234 
L 315.942473 73.471652 
L 318.05484 70.796029 
L 318.21733 72.53314 
L 318.867289 71.725271 
L 319.029779 73.379381 
L 321.142146 70.801081 
L 321.304636 72.410306 
L 321.954595 71.630779 
L 322.117084 73.168664 
L 324.066962 70.869394 
L 324.229451 72.366532 
L 324.716921 71.801066 
L 324.87941 73.233388 
L 326.829287 71.007142 
L 326.991777 72.405015 
L 327.479247 71.856953 
L 327.641736 73.198103 
L 329.591613 71.038326 
L 329.754103 72.350074 
L 330.241572 71.817884 
L 330.404062 73.079566 
L 332.19145 71.155545 
L 332.353939 72.389515 
L 332.841409 71.871917 
L 333.003898 73.061417 
L 334.791286 71.188706 
L 334.953776 72.354132 
L 335.441245 71.849984 
L 335.603735 72.975651 
L 337.391122 71.150382 
L 337.553612 72.25494 
L 337.878591 71.92717 
L 338.041081 72.994014 
L 339.828468 71.212726 
L 339.990958 72.261086 
L 340.315938 71.94101 
L 340.478428 72.95525 
L 342.103325 71.373139 
L 342.265815 72.369297 
L 342.753284 71.899977 
L 342.915774 72.866872 
L 344.540672 71.319534 
L 344.703161 72.270331 
L 345.028141 71.964151 
L 345.190631 72.886675 
L 346.815528 71.371906 
L 346.978018 72.280028 
L 347.302998 71.980177 
L 347.465487 72.862424 
L 349.090385 71.378253 
L 349.252875 72.247587 
L 349.577854 71.953679 
L 349.740344 72.799225 
L 351.202752 71.489406 
L 351.365242 72.321953 
L 351.852711 71.88948 
L 352.015201 72.701468 
L 353.477609 71.416138 
L 353.640098 72.216311 
L 353.965078 71.933297 
L 354.127568 72.713209 
L 355.589975 71.451045 
L 355.752465 72.220229 
L 356.077445 71.942207 
L 356.239934 72.692631 
L 357.702342 71.452424 
L 357.864832 72.193042 
L 358.189812 71.919773 
L 358.352301 72.642962 
L 359.652219 71.559085 
L 359.814709 72.272223 
L 360.139689 72.003477 
L 360.302179 72.700369 
L 361.764586 71.50083 
L 361.927076 72.189557 
L 362.252056 71.925119 
L 362.414545 72.598669 
L 363.714464 71.549211 
L 363.876953 72.21426 
L 364.201933 71.953924 
L 364.364423 72.604784 
L 365.664341 71.571339 
L 365.82683 72.214352 
L 366.15181 71.957927 
L 366.3143 72.587648 
L 367.614218 71.569521 
L 367.776708 72.19198 
L 368.101687 71.939302 
L 368.264177 72.549287 
L 369.401605 71.671263 
L 369.564095 72.273596 
L 369.889075 72.024506 
L 370.051564 72.615146 
L 371.351482 71.625714 
L 371.513972 72.210117 
L 371.838952 71.964457 
L 372.001441 72.537814 
L 373.13887 71.683847 
L 373.30136 72.250595 
L 373.626339 72.008237 
L 373.788829 72.564537 
L 374.926257 71.721878 
L 375.088747 72.272046 
L 375.413726 72.03283 
L 375.576216 72.573142 
L 376.713645 71.741358 
L 376.876134 72.275903 
L 377.201114 72.03975 
L 377.363604 72.564983 
L 378.501032 71.743665 
L 378.663522 72.263478 
L 378.988501 72.030279 
L 379.150991 72.541305 
L 380.288419 71.730044 
L 380.450909 72.235992 
L 380.775889 72.0056 
L 380.938378 72.503188 
L 382.075807 71.701642 
L 382.238296 72.194457 
L 382.400786 72.080638 
L 382.563276 72.56483 
L 383.700704 71.772676 
L 383.863194 72.25242 
L 384.188174 72.027387 
L 384.350663 72.499563 
L 385.488092 71.716459 
L 385.650581 72.184443 
L 385.813071 72.073193 
L 385.975561 72.533365 
L 387.112989 71.758994 
L 387.275479 72.215219 
L 387.600459 71.995189 
L 387.762948 72.444542 
L 388.737887 71.788067 
L 388.900377 72.233111 
L 389.225356 72.015438 
L 389.387846 72.453952 
L 390.362785 71.804471 
L 390.525274 72.238903 
L 390.850254 72.023566 
L 391.012744 72.451713 
L 391.987682 71.80906 
L 392.150172 72.233355 
L 392.475152 72.020247 
L 392.637641 72.438568 
L 393.61258 71.802506 
L 393.77507 72.217147 
L 394.100049 72.006211 
L 394.262539 72.415164 
L 395.237477 71.78548 
L 395.399967 72.190948 
L 395.562457 72.086521 
L 395.724947 72.486015 
L 396.862375 71.758628 
L 397.024865 72.155328 
L 397.187355 72.051931 
L 397.349844 72.442882 
L 398.324783 71.825439 
L 398.487273 72.213241 
L 398.487273 72.213241 
" style="fill:none;stroke:#1f77b4;stroke-linecap:square;stroke-width:1.5;"/>
   </g>
   <g id="line2d_12">
    <path clip-path="url(#p1a170cf955)" d="M 73.832727 276.912627 
L 235.99751 276.912621 
M 236.32249 72.143379 
L 398.487273 72.143373 
L 398.487273 72.143373 
" style="fill:none;stroke:#ff7f0e;stroke-linecap:square;stroke-width:1.5;"/>
   </g>
   <g id="patch_3">
    <path d="M 57.6 307.584 
L 57.6 41.472 
" style="fill:none;stroke:#000000;stroke-linecap:square;stroke-linejoin:miter;stroke-width:0.8;"/>
   </g>
   <g id="patch_4">
    <path d="M 414.72 307.584 
L 414.72 41.472 
" style="fill:none;stroke:#000000;stroke-linecap:square;stroke-linejoin:miter;stroke-width:0.8;"/>
   </g>
   <g id="patch_5">
    <path d="M 57.6 307.584 
L 414.72 307.584 
" style="fill:none;stroke:#000000;stroke-linecap:square;stroke-linejoin:miter;stroke-width:0.8;"/>
   </g>
   <g id="patch_6">
    <path d="M 57.6 41.472 
L 414.72 41.472 
" style="fill:none;stroke:#000000;stroke-linecap:square;stroke-linejoin:miter;stroke-width:0.8;"/>
   </g>
   <g id="legend_1">
    <g id="patch_7">
     <path d="M 188.440312 205.9405 
L 407.72 205.9405 
Q 409.72 205.9405 409.72 203.9405 
L 409.72 145.1155 
Q 409.72 143.1155 407.72 143.1155 
L 188.440312 143.1155 
Q 186.440312 143.1155 186.440312 145.1155 
L 186.440312 203.9405 
Q 186.440312 205.9405 188.440312 205.9405 
z
" style="fill:#ffffff;opacity:0.8;stroke:#cccccc;stroke-linejoin:miter;"/>
    </g>
    <g id="line2d_13">
     <path d="M 190.440312 151.213937 
L 210.440312 151.213937 
" style="fill:none;stroke:#1f77b4;stroke-linecap:square;stroke-width:1.5;"/>
    </g>
    <g id="line2d_14"/>
    <g id="text_13">
     <!-- rotmat_geodesic_distance_naive -->
     <g transform="translate(218.440312 154.713937)scale(0.1 -0.1)">
      <defs>
       <path d="M 52 44.1875 
Q 55.375 50.25 60.0625 53.125 
Q 64.75 56 71.09375 56 
Q 79.640625 56 84.28125 50.015625 
Q 88.921875 44.046875 88.921875 33.015625 
L 88.921875 0 
L 79.890625 0 
L 79.890625 32.71875 
Q 79.890625 40.578125 77.09375 44.375 
Q 74.3125 48.1875 68.609375 48.1875 
Q 61.625 48.1875 57.5625 43.546875 
Q 53.515625 38.921875 53.515625 30.90625 
L 53.515625 0 
L 44.484375 0 
L 44.484375 32.71875 
Q 44.484375 40.625 41.703125 44.40625 
Q 38.921875 48.1875 33.109375 48.1875 
Q 26.21875 48.1875 22.15625 43.53125 
Q 18.109375 38.875 18.109375 30.90625 
L 18.109375 0 
L 9.078125 0 
L 9.078125 54.6875 
L 18.109375 54.6875 
L 18.109375 46.1875 
Q 21.1875 51.21875 25.484375 53.609375 
Q 29.78125 56 35.6875 56 
Q 41.65625 56 45.828125 52.96875 
Q 50 49.953125 52 44.1875 
z
" id="DejaVuSans-109"/>
       <path d="M 50.984375 -16.609375 
L 50.984375 -23.578125 
L -0.984375 -23.578125 
L -0.984375 -16.609375 
z
" id="DejaVuSans-95"/>
      </defs>
      <use xlink:href="#DejaVuSans-114"/>
      <use x="38.863281" xlink:href="#DejaVuSans-111"/>
      <use x="100.044922" xlink:href="#DejaVuSans-116"/>
      <use x="139.253906" xlink:href="#DejaVuSans-109"/>
      <use x="236.666016" xlink:href="#DejaVuSans-97"/>
      <use x="297.945312" xlink:href="#DejaVuSans-116"/>
      <use x="337.154297" xlink:href="#DejaVuSans-95"/>
      <use x="387.154297" xlink:href="#DejaVuSans-103"/>
      <use x="450.630859" xlink:href="#DejaVuSans-101"/>
      <use x="512.154297" xlink:href="#DejaVuSans-111"/>
      <use x="573.335938" xlink:href="#DejaVuSans-100"/>
      <use x="636.8125" xlink:href="#DejaVuSans-101"/>
      <use x="698.335938" xlink:href="#DejaVuSans-115"/>
      <use x="750.435547" xlink:href="#DejaVuSans-105"/>
      <use x="778.21875" xlink:href="#DejaVuSans-99"/>
      <use x="833.199219" xlink:href="#DejaVuSans-95"/>
      <use x="883.199219" xlink:href="#DejaVuSans-100"/>
      <use x="946.675781" xlink:href="#DejaVuSans-105"/>
      <use x="974.458984" xlink:href="#DejaVuSans-115"/>
      <use x="1026.558594" xlink:href="#DejaVuSans-116"/>
      <use x="1065.767578" xlink:href="#DejaVuSans-97"/>
      <use x="1127.046875" xlink:href="#DejaVuSans-110"/>
      <use x="1190.425781" xlink:href="#DejaVuSans-99"/>
      <use x="1245.40625" xlink:href="#DejaVuSans-101"/>
      <use x="1306.929688" xlink:href="#DejaVuSans-95"/>
      <use x="1356.929688" xlink:href="#DejaVuSans-110"/>
      <use x="1420.308594" xlink:href="#DejaVuSans-97"/>
      <use x="1481.587891" xlink:href="#DejaVuSans-105"/>
      <use x="1509.371094" xlink:href="#DejaVuSans-118"/>
      <use x="1568.550781" xlink:href="#DejaVuSans-101"/>
     </g>
    </g>
    <g id="line2d_15">
     <path d="M 190.440312 166.170187 
L 210.440312 166.170187 
" style="fill:none;stroke:#ff7f0e;stroke-linecap:square;stroke-width:1.5;"/>
    </g>
    <g id="line2d_16"/>
    <g id="text_14">
     <!-- rotmat_geodesic_distance -->
     <g transform="translate(218.440312 169.670187)scale(0.1 -0.1)">
      <use xlink:href="#DejaVuSans-114"/>
      <use x="38.863281" xlink:href="#DejaVuSans-111"/>
      <use x="100.044922" xlink:href="#DejaVuSans-116"/>
      <use x="139.253906" xlink:href="#DejaVuSans-109"/>
      <use x="236.666016" xlink:href="#DejaVuSans-97"/>
      <use x="297.945312" xlink:href="#DejaVuSans-116"/>
      <use x="337.154297" xlink:href="#DejaVuSans-95"/>
      <use x="387.154297" xlink:href="#DejaVuSans-103"/>
      <use x="450.630859" xlink:href="#DejaVuSans-101"/>
      <use x="512.154297" xlink:href="#DejaVuSans-111"/>
      <use x="573.335938" xlink:href="#DejaVuSans-100"/>
      <use x="636.8125" xlink:href="#DejaVuSans-101"/>
      <use x="698.335938" xlink:href="#DejaVuSans-115"/>
      <use x="750.435547" xlink:href="#DejaVuSans-105"/>
      <use x="778.21875" xlink:href="#DejaVuSans-99"/>
      <use x="833.199219" xlink:href="#DejaVuSans-95"/>
      <use x="883.199219" xlink:href="#DejaVuSans-100"/>
      <use x="946.675781" xlink:href="#DejaVuSans-105"/>
      <use x="974.458984" xlink:href="#DejaVuSans-115"/>
      <use x="1026.558594" xlink:href="#DejaVuSans-116"/>
      <use x="1065.767578" xlink:href="#DejaVuSans-97"/>
      <use x="1127.046875" xlink:href="#DejaVuSans-110"/>
      <use x="1190.425781" xlink:href="#DejaVuSans-99"/>
      <use x="1245.40625" xlink:href="#DejaVuSans-101"/>
     </g>
    </g>
    <g id="PathCollection_3">
     <g>
      <use style="fill:#2ca02c;stroke:#2ca02c;stroke-width:1.5;" x="200.440312" xlink:href="#m349ef6d3dd" y="182.001437"/>
     </g>
    </g>
    <g id="text_15">
     <!-- rotmat_geodesic_distance_naive NaN -->
     <g transform="translate(218.440312 184.626437)scale(0.1 -0.1)">
      <defs>
       <path d="M 9.8125 72.90625 
L 23.09375 72.90625 
L 55.421875 11.921875 
L 55.421875 72.90625 
L 64.984375 72.90625 
L 64.984375 0 
L 51.703125 0 
L 19.390625 60.984375 
L 19.390625 0 
L 9.8125 0 
z
" id="DejaVuSans-78"/>
      </defs>
      <use xlink:href="#DejaVuSans-114"/>
      <use x="38.863281" xlink:href="#DejaVuSans-111"/>
      <use x="100.044922" xlink:href="#DejaVuSans-116"/>
      <use x="139.253906" xlink:href="#DejaVuSans-109"/>
      <use x="236.666016" xlink:href="#DejaVuSans-97"/>
      <use x="297.945312" xlink:href="#DejaVuSans-116"/>
      <use x="337.154297" xlink:href="#DejaVuSans-95"/>
      <use x="387.154297" xlink:href="#DejaVuSans-103"/>
      <use x="450.630859" xlink:href="#DejaVuSans-101"/>
      <use x="512.154297" xlink:href="#DejaVuSans-111"/>
      <use x="573.335938" xlink:href="#DejaVuSans-100"/>
      <use x="636.8125" xlink:href="#DejaVuSans-101"/>
      <use x="698.335938" xlink:href="#DejaVuSans-115"/>
      <use x="750.435547" xlink:href="#DejaVuSans-105"/>
      <use x="778.21875" xlink:href="#DejaVuSans-99"/>
      <use x="833.199219" xlink:href="#DejaVuSans-95"/>
      <use x="883.199219" xlink:href="#DejaVuSans-100"/>
      <use x="946.675781" xlink:href="#DejaVuSans-105"/>
      <use x="974.458984" xlink:href="#DejaVuSans-115"/>
      <use x="1026.558594" xlink:href="#DejaVuSans-116"/>
      <use x="1065.767578" xlink:href="#DejaVuSans-97"/>
      <use x="1127.046875" xlink:href="#DejaVuSans-110"/>
      <use x="1190.425781" xlink:href="#DejaVuSans-99"/>
      <use x="1245.40625" xlink:href="#DejaVuSans-101"/>
      <use x="1306.929688" xlink:href="#DejaVuSans-95"/>
      <use x="1356.929688" xlink:href="#DejaVuSans-110"/>
      <use x="1420.308594" xlink:href="#DejaVuSans-97"/>
      <use x="1481.587891" xlink:href="#DejaVuSans-105"/>
      <use x="1509.371094" xlink:href="#DejaVuSans-118"/>
      <use x="1568.550781" xlink:href="#DejaVuSans-101"/>
      <use x="1630.074219" xlink:href="#DejaVuSans-32"/>
      <use x="1661.861328" xlink:href="#DejaVuSans-78"/>
      <use x="1736.666016" xlink:href="#DejaVuSans-97"/>
      <use x="1797.945312" xlink:href="#DejaVuSans-78"/>
     </g>
    </g>
    <g id="PathCollection_4">
     <g>
      <use style="fill:#d62728;stroke:#d62728;stroke-width:1.5;" x="200.440312" xlink:href="#m85c78e9d90" y="196.957687"/>
     </g>
    </g>
    <g id="text_16">
     <!-- rotmat_geodesic_distance NaN -->
     <g transform="translate(218.440312 199.582687)scale(0.1 -0.1)">
      <use xlink:href="#DejaVuSans-114"/>
      <use x="38.863281" xlink:href="#DejaVuSans-111"/>
      <use x="100.044922" xlink:href="#DejaVuSans-116"/>
      <use x="139.253906" xlink:href="#DejaVuSans-109"/>
      <use x="236.666016" xlink:href="#DejaVuSans-97"/>
      <use x="297.945312" xlink:href="#DejaVuSans-116"/>
      <use x="337.154297" xlink:href="#DejaVuSans-95"/>
      <use x="387.154297" xlink:href="#DejaVuSans-103"/>
      <use x="450.630859" xlink:href="#DejaVuSans-101"/>
      <use x="512.154297" xlink:href="#DejaVuSans-111"/>
      <use x="573.335938" xlink:href="#DejaVuSans-100"/>
      <use x="636.8125" xlink:href="#DejaVuSans-101"/>
      <use x="698.335938" xlink:href="#DejaVuSans-115"/>
      <use x="750.435547" xlink:href="#DejaVuSans-105"/>
      <use x="778.21875" xlink:href="#DejaVuSans-99"/>
      <use x="833.199219" xlink:href="#DejaVuSans-95"/>
      <use x="883.199219" xlink:href="#DejaVuSans-100"/>
      <use x="946.675781" xlink:href="#DejaVuSans-105"/>
      <use x="974.458984" xlink:href="#DejaVuSans-115"/>
      <use x="1026.558594" xlink:href="#DejaVuSans-116"/>
      <use x="1065.767578" xlink:href="#DejaVuSans-97"/>
      <use x="1127.046875" xlink:href="#DejaVuSans-110"/>
      <use x="1190.425781" xlink:href="#DejaVuSans-99"/>
      <use x="1245.40625" xlink:href="#DejaVuSans-101"/>
      <use x="1306.929688" xlink:href="#DejaVuSans-32"/>
      <use x="1338.716797" xlink:href="#DejaVuSans-78"/>
      <use x="1413.521484" xlink:href="#DejaVuSans-97"/>
      <use x="1474.800781" xlink:href="#DejaVuSans-78"/>
     </g>
    </g>
   </g>
  </g>
 </g>
 <defs>
  <clipPath id="p1a170cf955">
   <rect height="266.112" width="357.12" x="57.6" y="41.472"/>
  </clipPath>
 </defs>
</svg>
