<?xml version="1.0" encoding="utf-8" standalone="no"?>
<!DOCTYPE svg PUBLIC "-//W3C//DTD SVG 1.1//EN"
  "http://www.w3.org/Graphics/SVG/1.1/DTD/svg11.dtd">
<!-- Created with matplotlib (https://matplotlib.org/) -->
<svg height="345.6pt" version="1.1" viewBox="0 0 460.8 345.6" width="460.8pt" xmlns="http://www.w3.org/2000/svg" xmlns:xlink="http://www.w3.org/1999/xlink">
 <metadata>
  <rdf:RDF xmlns:cc="http://creativecommons.org/ns#" xmlns:dc="http://purl.org/dc/elements/1.1/" xmlns:rdf="http://www.w3.org/1999/02/22-rdf-syntax-ns#">
   <cc:Work>
    <dc:type rdf:resource="http://purl.org/dc/dcmitype/StillImage"/>
    <dc:date>2021-06-18T17:32:20.944437</dc:date>
    <dc:format>image/svg+xml</dc:format>
    <dc:creator>
     <cc:Agent>
      <dc:title>Matplotlib v3.3.2, https://matplotlib.org/</dc:title>
     </cc:Agent>
    </dc:creator>
   </cc:Work>
  </rdf:RDF>
 </metadata>
 <defs>
  <style type="text/css">*{stroke-linecap:butt;stroke-linejoin:round;}</style>
 </defs>
 <g id="figure_1">
  <g id="patch_1">
   <path d="M 0 345.6 
L 460.8 345.6 
L 460.8 0 
L 0 0 
z
" style="fill:none;opacity:0;"/>
  </g>
  <g id="axes_1">
   <g id="patch_2">
    <path d="M 57.6 307.584 
L 414.72 307.584 
L 414.72 41.472 
L 57.6 41.472 
z
" style="fill:none;opacity:0;"/>
   </g>
   <g id="matplotlib.axis_1">
    <g id="xtick_1">
     <g id="line2d_1">
      <defs>
       <path d="M 0 0 
L 0 3.5 
" id="m0d0dc35aef" style="stroke:#000000;stroke-width:0.8;"/>
      </defs>
      <g>
       <use style="stroke:#000000;stroke-width:0.8;" x="106.298182" xlink:href="#m0d0dc35aef" y="307.584"/>
      </g>
     </g>
     <g id="text_1">
      <!-- −0.004 -->
      <g transform="translate(87.794276 322.182437)scale(0.1 -0.1)">
       <defs>
        <path d="M 10.59375 35.5 
L 73.1875 35.5 
L 73.1875 27.203125 
L 10.59375 27.203125 
z
" id="DejaVuSans-8722"/>
        <path d="M 31.78125 66.40625 
Q 24.171875 66.40625 20.328125 58.90625 
Q 16.5 51.421875 16.5 36.375 
Q 16.5 21.390625 20.328125 13.890625 
Q 24.171875 6.390625 31.78125 6.390625 
Q 39.453125 6.390625 43.28125 13.890625 
Q 47.125 21.390625 47.125 36.375 
Q 47.125 51.421875 43.28125 58.90625 
Q 39.453125 66.40625 31.78125 66.40625 
z
M 31.78125 74.21875 
Q 44.046875 74.21875 50.515625 64.515625 
Q 56.984375 54.828125 56.984375 36.375 
Q 56.984375 17.96875 50.515625 8.265625 
Q 44.046875 -1.421875 31.78125 -1.421875 
Q 19.53125 -1.421875 13.0625 8.265625 
Q 6.59375 17.96875 6.59375 36.375 
Q 6.59375 54.828125 13.0625 64.515625 
Q 19.53125 74.21875 31.78125 74.21875 
z
" id="DejaVuSans-48"/>
        <path d="M 10.6875 12.40625 
L 21 12.40625 
L 21 0 
L 10.6875 0 
z
" id="DejaVuSans-46"/>
        <path d="M 37.796875 64.3125 
L 12.890625 25.390625 
L 37.796875 25.390625 
z
M 35.203125 72.90625 
L 47.609375 72.90625 
L 47.609375 25.390625 
L 58.015625 25.390625 
L 58.015625 17.1875 
L 47.609375 17.1875 
L 47.609375 0 
L 37.796875 0 
L 37.796875 17.1875 
L 4.890625 17.1875 
L 4.890625 26.703125 
z
" id="DejaVuSans-52"/>
       </defs>
       <use xlink:href="#DejaVuSans-8722"/>
       <use x="83.789062" xlink:href="#DejaVuSans-48"/>
       <use x="147.412109" xlink:href="#DejaVuSans-46"/>
       <use x="179.199219" xlink:href="#DejaVuSans-48"/>
       <use x="242.822266" xlink:href="#DejaVuSans-48"/>
       <use x="306.445312" xlink:href="#DejaVuSans-52"/>
      </g>
     </g>
    </g>
    <g id="xtick_2">
     <g id="line2d_2">
      <g>
       <use style="stroke:#000000;stroke-width:0.8;" x="171.229091" xlink:href="#m0d0dc35aef" y="307.584"/>
      </g>
     </g>
     <g id="text_2">
      <!-- −0.002 -->
      <g transform="translate(152.725185 322.182437)scale(0.1 -0.1)">
       <defs>
        <path d="M 19.1875 8.296875 
L 53.609375 8.296875 
L 53.609375 0 
L 7.328125 0 
L 7.328125 8.296875 
Q 12.9375 14.109375 22.625 23.890625 
Q 32.328125 33.6875 34.8125 36.53125 
Q 39.546875 41.84375 41.421875 45.53125 
Q 43.3125 49.21875 43.3125 52.78125 
Q 43.3125 58.59375 39.234375 62.25 
Q 35.15625 65.921875 28.609375 65.921875 
Q 23.96875 65.921875 18.8125 64.3125 
Q 13.671875 62.703125 7.8125 59.421875 
L 7.8125 69.390625 
Q 13.765625 71.78125 18.9375 73 
Q 24.125 74.21875 28.421875 74.21875 
Q 39.75 74.21875 46.484375 68.546875 
Q 53.21875 62.890625 53.21875 53.421875 
Q 53.21875 48.921875 51.53125 44.890625 
Q 49.859375 40.875 45.40625 35.40625 
Q 44.1875 33.984375 37.640625 27.21875 
Q 31.109375 20.453125 19.1875 8.296875 
z
" id="DejaVuSans-50"/>
       </defs>
       <use xlink:href="#DejaVuSans-8722"/>
       <use x="83.789062" xlink:href="#DejaVuSans-48"/>
       <use x="147.412109" xlink:href="#DejaVuSans-46"/>
       <use x="179.199219" xlink:href="#DejaVuSans-48"/>
       <use x="242.822266" xlink:href="#DejaVuSans-48"/>
       <use x="306.445312" xlink:href="#DejaVuSans-50"/>
      </g>
     </g>
    </g>
    <g id="xtick_3">
     <g id="line2d_3">
      <g>
       <use style="stroke:#000000;stroke-width:0.8;" x="236.16" xlink:href="#m0d0dc35aef" y="307.584"/>
      </g>
     </g>
     <g id="text_3">
      <!-- 0.000 -->
      <g transform="translate(221.845937 322.182437)scale(0.1 -0.1)">
       <use xlink:href="#DejaVuSans-48"/>
       <use x="63.623047" xlink:href="#DejaVuSans-46"/>
       <use x="95.410156" xlink:href="#DejaVuSans-48"/>
       <use x="159.033203" xlink:href="#DejaVuSans-48"/>
       <use x="222.65625" xlink:href="#DejaVuSans-48"/>
      </g>
     </g>
    </g>
    <g id="xtick_4">
     <g id="line2d_4">
      <g>
       <use style="stroke:#000000;stroke-width:0.8;" x="301.090909" xlink:href="#m0d0dc35aef" y="307.584"/>
      </g>
     </g>
     <g id="text_4">
      <!-- 0.002 -->
      <g transform="translate(286.776847 322.182437)scale(0.1 -0.1)">
       <use xlink:href="#DejaVuSans-48"/>
       <use x="63.623047" xlink:href="#DejaVuSans-46"/>
       <use x="95.410156" xlink:href="#DejaVuSans-48"/>
       <use x="159.033203" xlink:href="#DejaVuSans-48"/>
       <use x="222.65625" xlink:href="#DejaVuSans-50"/>
      </g>
     </g>
    </g>
    <g id="xtick_5">
     <g id="line2d_5">
      <g>
       <use style="stroke:#000000;stroke-width:0.8;" x="366.021818" xlink:href="#m0d0dc35aef" y="307.584"/>
      </g>
     </g>
     <g id="text_5">
      <!-- 0.004 -->
      <g transform="translate(351.707756 322.182437)scale(0.1 -0.1)">
       <use xlink:href="#DejaVuSans-48"/>
       <use x="63.623047" xlink:href="#DejaVuSans-46"/>
       <use x="95.410156" xlink:href="#DejaVuSans-48"/>
       <use x="159.033203" xlink:href="#DejaVuSans-48"/>
       <use x="222.65625" xlink:href="#DejaVuSans-52"/>
      </g>
     </g>
    </g>
    <g id="text_6">
     <!-- Input angle (radians) -->
     <g transform="translate(183.740469 335.860562)scale(0.1 -0.1)">
      <defs>
       <path d="M 9.8125 72.90625 
L 19.671875 72.90625 
L 19.671875 0 
L 9.8125 0 
z
" id="DejaVuSans-73"/>
       <path d="M 54.890625 33.015625 
L 54.890625 0 
L 45.90625 0 
L 45.90625 32.71875 
Q 45.90625 40.484375 42.875 44.328125 
Q 39.84375 48.1875 33.796875 48.1875 
Q 26.515625 48.1875 22.3125 43.546875 
Q 18.109375 38.921875 18.109375 30.90625 
L 18.109375 0 
L 9.078125 0 
L 9.078125 54.6875 
L 18.109375 54.6875 
L 18.109375 46.1875 
Q 21.34375 51.125 25.703125 53.5625 
Q 30.078125 56 35.796875 56 
Q 45.21875 56 50.046875 50.171875 
Q 54.890625 44.34375 54.890625 33.015625 
z
" id="DejaVuSans-110"/>
       <path d="M 18.109375 8.203125 
L 18.109375 -20.796875 
L 9.078125 -20.796875 
L 9.078125 54.6875 
L 18.109375 54.6875 
L 18.109375 46.390625 
Q 20.953125 51.265625 25.265625 53.625 
Q 29.59375 56 35.59375 56 
Q 45.5625 56 51.78125 48.09375 
Q 58.015625 40.1875 58.015625 27.296875 
Q 58.015625 14.40625 51.78125 6.484375 
Q 45.5625 -1.421875 35.59375 -1.421875 
Q 29.59375 -1.421875 25.265625 0.953125 
Q 20.953125 3.328125 18.109375 8.203125 
z
M 48.6875 27.296875 
Q 48.6875 37.203125 44.609375 42.84375 
Q 40.53125 48.484375 33.40625 48.484375 
Q 26.265625 48.484375 22.1875 42.84375 
Q 18.109375 37.203125 18.109375 27.296875 
Q 18.109375 17.390625 22.1875 11.75 
Q 26.265625 6.109375 33.40625 6.109375 
Q 40.53125 6.109375 44.609375 11.75 
Q 48.6875 17.390625 48.6875 27.296875 
z
" id="DejaVuSans-112"/>
       <path d="M 8.5 21.578125 
L 8.5 54.6875 
L 17.484375 54.6875 
L 17.484375 21.921875 
Q 17.484375 14.15625 20.5 10.265625 
Q 23.53125 6.390625 29.59375 6.390625 
Q 36.859375 6.390625 41.078125 11.03125 
Q 45.3125 15.671875 45.3125 23.6875 
L 45.3125 54.6875 
L 54.296875 54.6875 
L 54.296875 0 
L 45.3125 0 
L 45.3125 8.40625 
Q 42.046875 3.421875 37.71875 1 
Q 33.40625 -1.421875 27.6875 -1.421875 
Q 18.265625 -1.421875 13.375 4.4375 
Q 8.5 10.296875 8.5 21.578125 
z
M 31.109375 56 
z
" id="DejaVuSans-117"/>
       <path d="M 18.3125 70.21875 
L 18.3125 54.6875 
L 36.8125 54.6875 
L 36.8125 47.703125 
L 18.3125 47.703125 
L 18.3125 18.015625 
Q 18.3125 11.328125 20.140625 9.421875 
Q 21.96875 7.515625 27.59375 7.515625 
L 36.8125 7.515625 
L 36.8125 0 
L 27.59375 0 
Q 17.1875 0 13.234375 3.875 
Q 9.28125 7.765625 9.28125 18.015625 
L 9.28125 47.703125 
L 2.6875 47.703125 
L 2.6875 54.6875 
L 9.28125 54.6875 
L 9.28125 70.21875 
z
" id="DejaVuSans-116"/>
       <path id="DejaVuSans-32"/>
       <path d="M 34.28125 27.484375 
Q 23.390625 27.484375 19.1875 25 
Q 14.984375 22.515625 14.984375 16.5 
Q 14.984375 11.71875 18.140625 8.90625 
Q 21.296875 6.109375 26.703125 6.109375 
Q 34.1875 6.109375 38.703125 11.40625 
Q 43.21875 16.703125 43.21875 25.484375 
L 43.21875 27.484375 
z
M 52.203125 31.203125 
L 52.203125 0 
L 43.21875 0 
L 43.21875 8.296875 
Q 40.140625 3.328125 35.546875 0.953125 
Q 30.953125 -1.421875 24.3125 -1.421875 
Q 15.921875 -1.421875 10.953125 3.296875 
Q 6 8.015625 6 15.921875 
Q 6 25.140625 12.171875 29.828125 
Q 18.359375 34.515625 30.609375 34.515625 
L 43.21875 34.515625 
L 43.21875 35.40625 
Q 43.21875 41.609375 39.140625 45 
Q 35.0625 48.390625 27.6875 48.390625 
Q 23 48.390625 18.546875 47.265625 
Q 14.109375 46.140625 10.015625 43.890625 
L 10.015625 52.203125 
Q 14.9375 54.109375 19.578125 55.046875 
Q 24.21875 56 28.609375 56 
Q 40.484375 56 46.34375 49.84375 
Q 52.203125 43.703125 52.203125 31.203125 
z
" id="DejaVuSans-97"/>
       <path d="M 45.40625 27.984375 
Q 45.40625 37.75 41.375 43.109375 
Q 37.359375 48.484375 30.078125 48.484375 
Q 22.859375 48.484375 18.828125 43.109375 
Q 14.796875 37.75 14.796875 27.984375 
Q 14.796875 18.265625 18.828125 12.890625 
Q 22.859375 7.515625 30.078125 7.515625 
Q 37.359375 7.515625 41.375 12.890625 
Q 45.40625 18.265625 45.40625 27.984375 
z
M 54.390625 6.78125 
Q 54.390625 -7.171875 48.1875 -13.984375 
Q 42 -20.796875 29.203125 -20.796875 
Q 24.46875 -20.796875 20.265625 -20.09375 
Q 16.0625 -19.390625 12.109375 -17.921875 
L 12.109375 -9.1875 
Q 16.0625 -11.328125 19.921875 -12.34375 
Q 23.78125 -13.375 27.78125 -13.375 
Q 36.625 -13.375 41.015625 -8.765625 
Q 45.40625 -4.15625 45.40625 5.171875 
L 45.40625 9.625 
Q 42.625 4.78125 38.28125 2.390625 
Q 33.9375 0 27.875 0 
Q 17.828125 0 11.671875 7.65625 
Q 5.515625 15.328125 5.515625 27.984375 
Q 5.515625 40.671875 11.671875 48.328125 
Q 17.828125 56 27.875 56 
Q 33.9375 56 38.28125 53.609375 
Q 42.625 51.21875 45.40625 46.390625 
L 45.40625 54.6875 
L 54.390625 54.6875 
z
" id="DejaVuSans-103"/>
       <path d="M 9.421875 75.984375 
L 18.40625 75.984375 
L 18.40625 0 
L 9.421875 0 
z
" id="DejaVuSans-108"/>
       <path d="M 56.203125 29.59375 
L 56.203125 25.203125 
L 14.890625 25.203125 
Q 15.484375 15.921875 20.484375 11.0625 
Q 25.484375 6.203125 34.421875 6.203125 
Q 39.59375 6.203125 44.453125 7.46875 
Q 49.3125 8.734375 54.109375 11.28125 
L 54.109375 2.78125 
Q 49.265625 0.734375 44.1875 -0.34375 
Q 39.109375 -1.421875 33.890625 -1.421875 
Q 20.796875 -1.421875 13.15625 6.1875 
Q 5.515625 13.8125 5.515625 26.8125 
Q 5.515625 40.234375 12.765625 48.109375 
Q 20.015625 56 32.328125 56 
Q 43.359375 56 49.78125 48.890625 
Q 56.203125 41.796875 56.203125 29.59375 
z
M 47.21875 32.234375 
Q 47.125 39.59375 43.09375 43.984375 
Q 39.0625 48.390625 32.421875 48.390625 
Q 24.90625 48.390625 20.390625 44.140625 
Q 15.875 39.890625 15.1875 32.171875 
z
" id="DejaVuSans-101"/>
       <path d="M 31 75.875 
Q 24.46875 64.65625 21.28125 53.65625 
Q 18.109375 42.671875 18.109375 31.390625 
Q 18.109375 20.125 21.3125 9.0625 
Q 24.515625 -2 31 -13.1875 
L 23.1875 -13.1875 
Q 15.875 -1.703125 12.234375 9.375 
Q 8.59375 20.453125 8.59375 31.390625 
Q 8.59375 42.28125 12.203125 53.3125 
Q 15.828125 64.359375 23.1875 75.875 
z
" id="DejaVuSans-40"/>
       <path d="M 41.109375 46.296875 
Q 39.59375 47.171875 37.8125 47.578125 
Q 36.03125 48 33.890625 48 
Q 26.265625 48 22.1875 43.046875 
Q 18.109375 38.09375 18.109375 28.8125 
L 18.109375 0 
L 9.078125 0 
L 9.078125 54.6875 
L 18.109375 54.6875 
L 18.109375 46.1875 
Q 20.953125 51.171875 25.484375 53.578125 
Q 30.03125 56 36.53125 56 
Q 37.453125 56 38.578125 55.875 
Q 39.703125 55.765625 41.0625 55.515625 
z
" id="DejaVuSans-114"/>
       <path d="M 45.40625 46.390625 
L 45.40625 75.984375 
L 54.390625 75.984375 
L 54.390625 0 
L 45.40625 0 
L 45.40625 8.203125 
Q 42.578125 3.328125 38.25 0.953125 
Q 33.9375 -1.421875 27.875 -1.421875 
Q 17.96875 -1.421875 11.734375 6.484375 
Q 5.515625 14.40625 5.515625 27.296875 
Q 5.515625 40.1875 11.734375 48.09375 
Q 17.96875 56 27.875 56 
Q 33.9375 56 38.25 53.625 
Q 42.578125 51.265625 45.40625 46.390625 
z
M 14.796875 27.296875 
Q 14.796875 17.390625 18.875 11.75 
Q 22.953125 6.109375 30.078125 6.109375 
Q 37.203125 6.109375 41.296875 11.75 
Q 45.40625 17.390625 45.40625 27.296875 
Q 45.40625 37.203125 41.296875 42.84375 
Q 37.203125 48.484375 30.078125 48.484375 
Q 22.953125 48.484375 18.875 42.84375 
Q 14.796875 37.203125 14.796875 27.296875 
z
" id="DejaVuSans-100"/>
       <path d="M 9.421875 54.6875 
L 18.40625 54.6875 
L 18.40625 0 
L 9.421875 0 
z
M 9.421875 75.984375 
L 18.40625 75.984375 
L 18.40625 64.59375 
L 9.421875 64.59375 
z
" id="DejaVuSans-105"/>
       <path d="M 44.28125 53.078125 
L 44.28125 44.578125 
Q 40.484375 46.53125 36.375 47.5 
Q 32.28125 48.484375 27.875 48.484375 
Q 21.1875 48.484375 17.84375 46.4375 
Q 14.5 44.390625 14.5 40.28125 
Q 14.5 37.15625 16.890625 35.375 
Q 19.28125 33.59375 26.515625 31.984375 
L 29.59375 31.296875 
Q 39.15625 29.25 43.1875 25.515625 
Q 47.21875 21.78125 47.21875 15.09375 
Q 47.21875 7.46875 41.1875 3.015625 
Q 35.15625 -1.421875 24.609375 -1.421875 
Q 20.21875 -1.421875 15.453125 -0.5625 
Q 10.6875 0.296875 5.421875 2 
L 5.421875 11.28125 
Q 10.40625 8.6875 15.234375 7.390625 
Q 20.0625 6.109375 24.8125 6.109375 
Q 31.15625 6.109375 34.5625 8.28125 
Q 37.984375 10.453125 37.984375 14.40625 
Q 37.984375 18.0625 35.515625 20.015625 
Q 33.0625 21.96875 24.703125 23.78125 
L 21.578125 24.515625 
Q 13.234375 26.265625 9.515625 29.90625 
Q 5.8125 33.546875 5.8125 39.890625 
Q 5.8125 47.609375 11.28125 51.796875 
Q 16.75 56 26.8125 56 
Q 31.78125 56 36.171875 55.265625 
Q 40.578125 54.546875 44.28125 53.078125 
z
" id="DejaVuSans-115"/>
       <path d="M 8.015625 75.875 
L 15.828125 75.875 
Q 23.140625 64.359375 26.78125 53.3125 
Q 30.421875 42.28125 30.421875 31.390625 
Q 30.421875 20.453125 26.78125 9.375 
Q 23.140625 -1.703125 15.828125 -13.1875 
L 8.015625 -13.1875 
Q 14.5 -2 17.703125 9.0625 
Q 20.90625 20.125 20.90625 31.390625 
Q 20.90625 42.671875 17.703125 53.65625 
Q 14.5 64.65625 8.015625 75.875 
z
" id="DejaVuSans-41"/>
      </defs>
      <use xlink:href="#DejaVuSans-73"/>
      <use x="29.492188" xlink:href="#DejaVuSans-110"/>
      <use x="92.871094" xlink:href="#DejaVuSans-112"/>
      <use x="156.347656" xlink:href="#DejaVuSans-117"/>
      <use x="219.726562" xlink:href="#DejaVuSans-116"/>
      <use x="258.935547" xlink:href="#DejaVuSans-32"/>
      <use x="290.722656" xlink:href="#DejaVuSans-97"/>
      <use x="352.001953" xlink:href="#DejaVuSans-110"/>
      <use x="415.380859" xlink:href="#DejaVuSans-103"/>
      <use x="478.857422" xlink:href="#DejaVuSans-108"/>
      <use x="506.640625" xlink:href="#DejaVuSans-101"/>
      <use x="568.164062" xlink:href="#DejaVuSans-32"/>
      <use x="599.951172" xlink:href="#DejaVuSans-40"/>
      <use x="638.964844" xlink:href="#DejaVuSans-114"/>
      <use x="680.078125" xlink:href="#DejaVuSans-97"/>
      <use x="741.357422" xlink:href="#DejaVuSans-100"/>
      <use x="804.833984" xlink:href="#DejaVuSans-105"/>
      <use x="832.617188" xlink:href="#DejaVuSans-97"/>
      <use x="893.896484" xlink:href="#DejaVuSans-110"/>
      <use x="957.275391" xlink:href="#DejaVuSans-115"/>
      <use x="1009.375" xlink:href="#DejaVuSans-41"/>
     </g>
    </g>
   </g>
   <g id="matplotlib.axis_2">
    <g id="ytick_1">
     <g id="line2d_6">
      <defs>
       <path d="M 0 0 
L -3.5 0 
" id="m4660083d46" style="stroke:#000000;stroke-width:0.8;"/>
      </defs>
      <g>
       <use style="stroke:#000000;stroke-width:0.8;" x="57.6" xlink:href="#m4660083d46" y="295.488"/>
      </g>
     </g>
     <g id="text_7">
      <!-- 0.000 -->
      <g transform="translate(21.971875 299.287219)scale(0.1 -0.1)">
       <use xlink:href="#DejaVuSans-48"/>
       <use x="63.623047" xlink:href="#DejaVuSans-46"/>
       <use x="95.410156" xlink:href="#DejaVuSans-48"/>
       <use x="159.033203" xlink:href="#DejaVuSans-48"/>
       <use x="222.65625" xlink:href="#DejaVuSans-48"/>
      </g>
     </g>
    </g>
    <g id="ytick_2">
     <g id="line2d_7">
      <g>
       <use style="stroke:#000000;stroke-width:0.8;" x="57.6" xlink:href="#m4660083d46" y="247.136871"/>
      </g>
     </g>
     <g id="text_8">
      <!-- 0.001 -->
      <g transform="translate(21.971875 250.93609)scale(0.1 -0.1)">
       <defs>
        <path d="M 12.40625 8.296875 
L 28.515625 8.296875 
L 28.515625 63.921875 
L 10.984375 60.40625 
L 10.984375 69.390625 
L 28.421875 72.90625 
L 38.28125 72.90625 
L 38.28125 8.296875 
L 54.390625 8.296875 
L 54.390625 0 
L 12.40625 0 
z
" id="DejaVuSans-49"/>
       </defs>
       <use xlink:href="#DejaVuSans-48"/>
       <use x="63.623047" xlink:href="#DejaVuSans-46"/>
       <use x="95.410156" xlink:href="#DejaVuSans-48"/>
       <use x="159.033203" xlink:href="#DejaVuSans-48"/>
       <use x="222.65625" xlink:href="#DejaVuSans-49"/>
      </g>
     </g>
    </g>
    <g id="ytick_3">
     <g id="line2d_8">
      <g>
       <use style="stroke:#000000;stroke-width:0.8;" x="57.6" xlink:href="#m4660083d46" y="198.785742"/>
      </g>
     </g>
     <g id="text_9">
      <!-- 0.002 -->
      <g transform="translate(21.971875 202.584961)scale(0.1 -0.1)">
       <use xlink:href="#DejaVuSans-48"/>
       <use x="63.623047" xlink:href="#DejaVuSans-46"/>
       <use x="95.410156" xlink:href="#DejaVuSans-48"/>
       <use x="159.033203" xlink:href="#DejaVuSans-48"/>
       <use x="222.65625" xlink:href="#DejaVuSans-50"/>
      </g>
     </g>
    </g>
    <g id="ytick_4">
     <g id="line2d_9">
      <g>
       <use style="stroke:#000000;stroke-width:0.8;" x="57.6" xlink:href="#m4660083d46" y="150.434614"/>
      </g>
     </g>
     <g id="text_10">
      <!-- 0.003 -->
      <g transform="translate(21.971875 154.233832)scale(0.1 -0.1)">
       <defs>
        <path d="M 40.578125 39.3125 
Q 47.65625 37.796875 51.625 33 
Q 55.609375 28.21875 55.609375 21.1875 
Q 55.609375 10.40625 48.1875 4.484375 
Q 40.765625 -1.421875 27.09375 -1.421875 
Q 22.515625 -1.421875 17.65625 -0.515625 
Q 12.796875 0.390625 7.625 2.203125 
L 7.625 11.71875 
Q 11.71875 9.328125 16.59375 8.109375 
Q 21.484375 6.890625 26.8125 6.890625 
Q 36.078125 6.890625 40.9375 10.546875 
Q 45.796875 14.203125 45.796875 21.1875 
Q 45.796875 27.640625 41.28125 31.265625 
Q 36.765625 34.90625 28.71875 34.90625 
L 20.21875 34.90625 
L 20.21875 43.015625 
L 29.109375 43.015625 
Q 36.375 43.015625 40.234375 45.921875 
Q 44.09375 48.828125 44.09375 54.296875 
Q 44.09375 59.90625 40.109375 62.90625 
Q 36.140625 65.921875 28.71875 65.921875 
Q 24.65625 65.921875 20.015625 65.03125 
Q 15.375 64.15625 9.8125 62.3125 
L 9.8125 71.09375 
Q 15.4375 72.65625 20.34375 73.4375 
Q 25.25 74.21875 29.59375 74.21875 
Q 40.828125 74.21875 47.359375 69.109375 
Q 53.90625 64.015625 53.90625 55.328125 
Q 53.90625 49.265625 50.4375 45.09375 
Q 46.96875 40.921875 40.578125 39.3125 
z
" id="DejaVuSans-51"/>
       </defs>
       <use xlink:href="#DejaVuSans-48"/>
       <use x="63.623047" xlink:href="#DejaVuSans-46"/>
       <use x="95.410156" xlink:href="#DejaVuSans-48"/>
       <use x="159.033203" xlink:href="#DejaVuSans-48"/>
       <use x="222.65625" xlink:href="#DejaVuSans-51"/>
      </g>
     </g>
    </g>
    <g id="ytick_5">
     <g id="line2d_10">
      <g>
       <use style="stroke:#000000;stroke-width:0.8;" x="57.6" xlink:href="#m4660083d46" y="102.083485"/>
      </g>
     </g>
     <g id="text_11">
      <!-- 0.004 -->
      <g transform="translate(21.971875 105.882703)scale(0.1 -0.1)">
       <use xlink:href="#DejaVuSans-48"/>
       <use x="63.623047" xlink:href="#DejaVuSans-46"/>
       <use x="95.410156" xlink:href="#DejaVuSans-48"/>
       <use x="159.033203" xlink:href="#DejaVuSans-48"/>
       <use x="222.65625" xlink:href="#DejaVuSans-52"/>
      </g>
     </g>
    </g>
    <g id="ytick_6">
     <g id="line2d_11">
      <g>
       <use style="stroke:#000000;stroke-width:0.8;" x="57.6" xlink:href="#m4660083d46" y="53.732356"/>
      </g>
     </g>
     <g id="text_12">
      <!-- 0.005 -->
      <g transform="translate(21.971875 57.531575)scale(0.1 -0.1)">
       <defs>
        <path d="M 10.796875 72.90625 
L 49.515625 72.90625 
L 49.515625 64.59375 
L 19.828125 64.59375 
L 19.828125 46.734375 
Q 21.96875 47.46875 24.109375 47.828125 
Q 26.265625 48.1875 28.421875 48.1875 
Q 40.625 48.1875 47.75 41.5 
Q 54.890625 34.8125 54.890625 23.390625 
Q 54.890625 11.625 47.5625 5.09375 
Q 40.234375 -1.421875 26.90625 -1.421875 
Q 22.3125 -1.421875 17.546875 -0.640625 
Q 12.796875 0.140625 7.71875 1.703125 
L 7.71875 11.625 
Q 12.109375 9.234375 16.796875 8.0625 
Q 21.484375 6.890625 26.703125 6.890625 
Q 35.15625 6.890625 40.078125 11.328125 
Q 45.015625 15.765625 45.015625 23.390625 
Q 45.015625 31 40.078125 35.4375 
Q 35.15625 39.890625 26.703125 39.890625 
Q 22.75 39.890625 18.8125 39.015625 
Q 14.890625 38.140625 10.796875 36.28125 
z
" id="DejaVuSans-53"/>
       </defs>
       <use xlink:href="#DejaVuSans-48"/>
       <use x="63.623047" xlink:href="#DejaVuSans-46"/>
       <use x="95.410156" xlink:href="#DejaVuSans-48"/>
       <use x="159.033203" xlink:href="#DejaVuSans-48"/>
       <use x="222.65625" xlink:href="#DejaVuSans-53"/>
      </g>
     </g>
    </g>
    <g id="text_13">
     <!-- Geodesic distance (radians) -->
     <g transform="translate(15.892187 244.318625)rotate(-90)scale(0.1 -0.1)">
      <defs>
       <path d="M 59.515625 10.40625 
L 59.515625 29.984375 
L 43.40625 29.984375 
L 43.40625 38.09375 
L 69.28125 38.09375 
L 69.28125 6.78125 
Q 63.578125 2.734375 56.6875 0.65625 
Q 49.8125 -1.421875 42 -1.421875 
Q 24.90625 -1.421875 15.25 8.5625 
Q 5.609375 18.5625 5.609375 36.375 
Q 5.609375 54.25 15.25 64.234375 
Q 24.90625 74.21875 42 74.21875 
Q 49.125 74.21875 55.546875 72.453125 
Q 61.96875 70.703125 67.390625 67.28125 
L 67.390625 56.78125 
Q 61.921875 61.421875 55.765625 63.765625 
Q 49.609375 66.109375 42.828125 66.109375 
Q 29.4375 66.109375 22.71875 58.640625 
Q 16.015625 51.171875 16.015625 36.375 
Q 16.015625 21.625 22.71875 14.15625 
Q 29.4375 6.6875 42.828125 6.6875 
Q 48.046875 6.6875 52.140625 7.59375 
Q 56.25 8.5 59.515625 10.40625 
z
" id="DejaVuSans-71"/>
       <path d="M 30.609375 48.390625 
Q 23.390625 48.390625 19.1875 42.75 
Q 14.984375 37.109375 14.984375 27.296875 
Q 14.984375 17.484375 19.15625 11.84375 
Q 23.34375 6.203125 30.609375 6.203125 
Q 37.796875 6.203125 41.984375 11.859375 
Q 46.1875 17.53125 46.1875 27.296875 
Q 46.1875 37.015625 41.984375 42.703125 
Q 37.796875 48.390625 30.609375 48.390625 
z
M 30.609375 56 
Q 42.328125 56 49.015625 48.375 
Q 55.71875 40.765625 55.71875 27.296875 
Q 55.71875 13.875 49.015625 6.21875 
Q 42.328125 -1.421875 30.609375 -1.421875 
Q 18.84375 -1.421875 12.171875 6.21875 
Q 5.515625 13.875 5.515625 27.296875 
Q 5.515625 40.765625 12.171875 48.375 
Q 18.84375 56 30.609375 56 
z
" id="DejaVuSans-111"/>
       <path d="M 48.78125 52.59375 
L 48.78125 44.1875 
Q 44.96875 46.296875 41.140625 47.34375 
Q 37.3125 48.390625 33.40625 48.390625 
Q 24.65625 48.390625 19.8125 42.84375 
Q 14.984375 37.3125 14.984375 27.296875 
Q 14.984375 17.28125 19.8125 11.734375 
Q 24.65625 6.203125 33.40625 6.203125 
Q 37.3125 6.203125 41.140625 7.25 
Q 44.96875 8.296875 48.78125 10.40625 
L 48.78125 2.09375 
Q 45.015625 0.34375 40.984375 -0.53125 
Q 36.96875 -1.421875 32.421875 -1.421875 
Q 20.0625 -1.421875 12.78125 6.34375 
Q 5.515625 14.109375 5.515625 27.296875 
Q 5.515625 40.671875 12.859375 48.328125 
Q 20.21875 56 33.015625 56 
Q 37.15625 56 41.109375 55.140625 
Q 45.0625 54.296875 48.78125 52.59375 
z
" id="DejaVuSans-99"/>
      </defs>
      <use xlink:href="#DejaVuSans-71"/>
      <use x="77.490234" xlink:href="#DejaVuSans-101"/>
      <use x="139.013672" xlink:href="#DejaVuSans-111"/>
      <use x="200.195312" xlink:href="#DejaVuSans-100"/>
      <use x="263.671875" xlink:href="#DejaVuSans-101"/>
      <use x="325.195312" xlink:href="#DejaVuSans-115"/>
      <use x="377.294922" xlink:href="#DejaVuSans-105"/>
      <use x="405.078125" xlink:href="#DejaVuSans-99"/>
      <use x="460.058594" xlink:href="#DejaVuSans-32"/>
      <use x="491.845703" xlink:href="#DejaVuSans-100"/>
      <use x="555.322266" xlink:href="#DejaVuSans-105"/>
      <use x="583.105469" xlink:href="#DejaVuSans-115"/>
      <use x="635.205078" xlink:href="#DejaVuSans-116"/>
      <use x="674.414062" xlink:href="#DejaVuSans-97"/>
      <use x="735.693359" xlink:href="#DejaVuSans-110"/>
      <use x="799.072266" xlink:href="#DejaVuSans-99"/>
      <use x="854.052734" xlink:href="#DejaVuSans-101"/>
      <use x="915.576172" xlink:href="#DejaVuSans-32"/>
      <use x="947.363281" xlink:href="#DejaVuSans-40"/>
      <use x="986.376953" xlink:href="#DejaVuSans-114"/>
      <use x="1027.490234" xlink:href="#DejaVuSans-97"/>
      <use x="1088.769531" xlink:href="#DejaVuSans-100"/>
      <use x="1152.246094" xlink:href="#DejaVuSans-105"/>
      <use x="1180.029297" xlink:href="#DejaVuSans-97"/>
      <use x="1241.308594" xlink:href="#DejaVuSans-110"/>
      <use x="1304.6875" xlink:href="#DejaVuSans-115"/>
      <use x="1356.787109" xlink:href="#DejaVuSans-41"/>
     </g>
    </g>
   </g>
   <g id="line2d_12">
    <path clip-path="url(#pf372e5a893)" d="M 73.832727 53.568 
L 73.995217 54.722762 
L 74.970156 54.722762 
L 75.132645 55.883085 
L 75.295135 55.883085 
L 75.457625 57.04906 
L 76.595053 57.04906 
L 76.757543 58.220754 
L 76.920033 58.220754 
L 77.082523 59.398279 
L 78.057461 59.398279 
L 78.219951 60.58168 
L 78.54493 60.58168 
L 78.70742 61.771093 
L 79.682359 61.771093 
L 79.844848 62.966585 
L 80.169828 62.966585 
L 80.332318 64.168269 
L 81.307256 64.168269 
L 81.469746 65.376212 
L 81.794726 65.376212 
L 81.957215 66.590527 
L 82.932154 66.590527 
L 83.094644 67.811327 
L 83.419623 67.811327 
L 83.582113 69.0387 
L 84.557052 69.0387 
L 84.719541 70.272761 
L 85.044521 70.272761 
L 85.207011 71.513644 
L 86.344439 71.513644 
L 86.506929 72.761417 
L 86.669419 72.761417 
L 86.831908 74.016236 
L 87.969337 74.016236 
L 88.131826 75.278194 
L 88.456806 75.278194 
L 88.619296 76.547423 
L 89.756724 76.547423 
L 89.919214 77.82406 
L 90.081704 77.82406 
L 90.244193 79.108218 
L 91.381622 79.108218 
L 91.544111 80.400053 
L 91.869091 80.400053 
L 92.031581 81.6997 
L 93.169009 81.6997 
L 93.331499 83.007273 
L 93.656478 83.007273 
L 93.818968 84.322974 
L 94.956396 84.322974 
L 95.118886 85.646894 
L 95.443866 85.646894 
L 95.606355 86.979233 
L 96.743784 86.979233 
L 96.906274 88.320152 
L 97.231253 88.320152 
L 97.393743 89.669783 
L 98.531171 89.669783 
L 98.693661 91.028353 
L 99.01864 91.028353 
L 99.18113 92.395997 
L 100.318559 92.395997 
L 100.481048 93.772895 
L 100.806028 93.772895 
L 100.968518 95.159271 
L 102.268436 95.159271 
L 102.430925 96.555306 
L 102.755905 96.555306 
L 102.918395 97.961226 
L 104.055823 97.961226 
L 104.218313 99.37721 
L 104.543292 99.37721 
L 104.705782 100.803484 
L 106.0057 100.803484 
L 106.16819 102.240294 
L 106.49317 102.240294 
L 106.655659 103.687867 
L 107.955577 103.687867 
L 108.118067 105.14645 
L 108.443047 105.14645 
L 108.605536 106.61629 
L 109.905455 106.61629 
L 110.067944 108.097659 
L 110.392924 108.097659 
L 110.555414 109.590825 
L 112.017821 109.590825 
L 112.180311 111.096093 
L 112.505291 111.096093 
L 112.667781 112.613756 
L 113.967699 112.613756 
L 114.130188 114.144106 
L 114.455168 114.144106 
L 114.617658 115.687493 
L 116.080066 115.687493 
L 116.242555 117.244242 
L 116.567535 117.244242 
L 116.730025 118.814703 
L 118.192432 118.814703 
L 118.354922 120.399248 
L 118.679902 120.399248 
L 118.842391 121.998269 
L 120.304799 121.998269 
L 120.467289 123.612163 
L 120.954758 123.612163 
L 121.117248 125.241355 
L 122.579656 125.241355 
L 122.742146 126.886296 
L 123.067125 126.886296 
L 123.229615 128.547438 
L 124.854513 128.547438 
L 125.017002 130.225274 
L 125.341982 130.225274 
L 125.504472 131.920323 
L 127.129369 131.920323 
L 127.291859 133.633126 
L 127.616839 133.633126 
L 127.779328 135.364244 
L 129.404226 135.364244 
L 129.566716 137.114276 
L 130.054185 137.114276 
L 130.216675 138.883873 
L 131.841572 138.883873 
L 132.004062 140.6737 
L 132.329042 140.6737 
L 132.491532 142.484455 
L 134.278919 142.484455 
L 134.441409 144.316904 
L 134.766388 144.316904 
L 134.928878 146.171834 
L 136.716265 146.171834 
L 136.878755 148.050101 
L 137.366224 148.050101 
L 137.528714 149.952606 
L 139.316102 149.952606 
L 139.478591 151.880316 
L 139.966061 151.880316 
L 140.12855 153.834257 
L 141.915938 153.834257 
L 142.078428 155.81552 
L 142.565897 155.81552 
L 142.728387 157.825299 
L 144.678264 157.825299 
L 144.840753 159.864865 
L 145.328223 159.864865 
L 145.490713 161.93557 
L 147.44059 161.93557 
L 147.603079 164.038889 
L 148.090549 164.038889 
L 148.253038 166.176419 
L 150.202916 166.176419 
L 150.365405 168.349883 
L 151.015364 168.349883 
L 151.177854 170.561151 
L 153.290221 170.561151 
L 153.452711 172.81227 
L 154.10267 172.81227 
L 154.26516 175.105471 
L 156.377527 175.105471 
L 156.540016 177.443218 
L 157.189975 177.443218 
L 157.352465 179.828213 
L 159.627322 179.828213 
L 159.789812 182.263429 
L 160.439771 182.263429 
L 160.60226 184.752186 
L 162.877117 184.752186 
L 163.039607 187.298176 
L 163.852056 187.298176 
L 164.014545 189.905543 
L 166.451892 189.905543 
L 166.614382 192.578959 
L 167.42683 192.578959 
L 167.58932 195.323692 
L 170.189156 195.323692 
L 170.351646 198.145787 
L 171.164095 198.145787 
L 171.326585 201.05219 
L 174.088911 201.05219 
L 174.2514 204.050917 
L 175.063849 204.050917 
L 175.226339 207.151385 
L 178.313645 207.151385 
L 178.476134 210.364711 
L 179.451073 210.364711 
L 179.613563 213.70419 
L 182.863358 213.70419 
L 183.025848 217.185965 
L 184.000786 217.185965 
L 184.163276 220.82994 
L 187.738051 220.82994 
L 187.900541 224.661146 
L 189.037969 224.661146 
L 189.200459 228.711802 
L 193.262703 228.711802 
L 193.425192 233.024587 
L 194.725111 233.024587 
L 194.8876 237.658118 
L 199.599803 237.658118 
L 199.762293 242.696783 
L 201.387191 242.696783 
L 201.549681 248.270101 
L 207.236822 248.270101 
L 207.399312 254.596098 
L 209.511679 254.596098 
L 209.674169 262.099904 
L 217.961147 262.099904 
L 218.123636 271.87905 
L 221.860901 271.87905 
L 222.023391 295.488 
L 250.296609 295.488 
L 250.459099 271.87905 
L 254.196364 271.87905 
L 254.358853 262.099904 
L 262.645831 262.099904 
L 262.808321 254.596098 
L 264.920688 254.596098 
L 265.083178 248.270101 
L 270.770319 248.270101 
L 270.932809 242.696783 
L 272.557707 242.696783 
L 272.720197 237.658118 
L 277.4324 237.658118 
L 277.594889 233.024587 
L 278.894808 233.024587 
L 279.057297 228.711802 
L 283.119541 228.711802 
L 283.282031 224.661146 
L 284.419459 224.661146 
L 284.581949 220.82994 
L 288.156724 220.82994 
L 288.319214 217.185965 
L 289.294152 217.185965 
L 289.456642 213.70419 
L 292.706437 213.70419 
L 292.868927 210.364711 
L 293.843866 210.364711 
L 294.006355 207.151385 
L 297.093661 207.151385 
L 297.256151 204.050917 
L 298.0686 204.050917 
L 298.231089 201.05219 
L 300.993415 201.05219 
L 301.155905 198.145787 
L 301.968354 198.145787 
L 302.130844 195.323692 
L 304.73068 195.323692 
L 304.89317 192.578959 
L 305.705618 192.578959 
L 305.868108 189.905543 
L 308.305455 189.905543 
L 308.467944 187.298176 
L 309.280393 187.298176 
L 309.442883 184.752186 
L 311.71774 184.752186 
L 311.880229 182.263429 
L 312.530188 182.263429 
L 312.692678 179.828213 
L 314.967535 179.828213 
L 315.130025 177.443218 
L 315.779984 177.443218 
L 315.942473 175.105471 
L 318.05484 175.105471 
L 318.21733 172.81227 
L 318.867289 172.81227 
L 319.029779 170.561151 
L 321.142146 170.561151 
L 321.304636 168.349883 
L 321.954595 168.349883 
L 322.117084 166.176419 
L 324.066962 166.176419 
L 324.229451 164.038889 
L 324.716921 164.038889 
L 324.87941 161.93557 
L 326.829287 161.93557 
L 326.991777 159.864865 
L 327.479247 159.864865 
L 327.641736 157.825299 
L 329.591613 157.825299 
L 329.754103 155.81552 
L 330.241572 155.81552 
L 330.404062 153.834257 
L 332.19145 153.834257 
L 332.353939 151.880316 
L 332.841409 151.880316 
L 333.003898 149.952606 
L 334.791286 149.952606 
L 334.953776 148.050101 
L 335.441245 148.050101 
L 335.603735 146.171834 
L 337.391122 146.171834 
L 337.553612 144.316904 
L 337.878591 144.316904 
L 338.041081 142.484455 
L 339.828468 142.484455 
L 339.990958 140.6737 
L 340.315938 140.6737 
L 340.478428 138.883873 
L 342.103325 138.883873 
L 342.265815 137.114276 
L 342.753284 137.114276 
L 342.915774 135.364244 
L 344.540672 135.364244 
L 344.703161 133.633126 
L 345.028141 133.633126 
L 345.190631 131.920323 
L 346.815528 131.920323 
L 346.978018 130.225274 
L 347.302998 130.225274 
L 347.465487 128.547438 
L 349.090385 128.547438 
L 349.252875 126.886296 
L 349.577854 126.886296 
L 349.740344 125.241355 
L 351.202752 125.241355 
L 351.365242 123.612163 
L 351.852711 123.612163 
L 352.015201 121.998269 
L 353.477609 121.998269 
L 353.640098 120.399248 
L 353.965078 120.399248 
L 354.127568 118.814703 
L 355.589975 118.814703 
L 355.752465 117.244242 
L 356.077445 117.244242 
L 356.239934 115.687493 
L 357.702342 115.687493 
L 357.864832 114.144106 
L 358.189812 114.144106 
L 358.352301 112.613756 
L 359.652219 112.613756 
L 359.814709 111.096093 
L 360.139689 111.096093 
L 360.302179 109.590825 
L 361.764586 109.590825 
L 361.927076 108.097659 
L 362.252056 108.097659 
L 362.414545 106.61629 
L 363.714464 106.61629 
L 363.876953 105.14645 
L 364.201933 105.14645 
L 364.364423 103.687867 
L 365.664341 103.687867 
L 365.82683 102.240294 
L 366.15181 102.240294 
L 366.3143 100.803484 
L 367.614218 100.803484 
L 367.776708 99.37721 
L 368.101687 99.37721 
L 368.264177 97.961226 
L 369.401605 97.961226 
L 369.564095 96.555306 
L 369.889075 96.555306 
L 370.051564 95.159271 
L 371.351482 95.159271 
L 371.513972 93.772895 
L 371.838952 93.772895 
L 372.001441 92.395997 
L 373.13887 92.395997 
L 373.30136 91.028353 
L 373.626339 91.028353 
L 373.788829 89.669783 
L 374.926257 89.669783 
L 375.088747 88.320152 
L 375.413726 88.320152 
L 375.576216 86.979233 
L 376.713645 86.979233 
L 376.876134 85.646894 
L 377.201114 85.646894 
L 377.363604 84.322974 
L 378.501032 84.322974 
L 378.663522 83.007273 
L 378.988501 83.007273 
L 379.150991 81.6997 
L 380.288419 81.6997 
L 380.450909 80.400053 
L 380.775889 80.400053 
L 380.938378 79.108218 
L 382.075807 79.108218 
L 382.238296 77.82406 
L 382.400786 77.82406 
L 382.563276 76.547423 
L 383.700704 76.547423 
L 383.863194 75.278194 
L 384.188174 75.278194 
L 384.350663 74.016236 
L 385.488092 74.016236 
L 385.650581 72.761417 
L 385.813071 72.761417 
L 385.975561 71.513644 
L 387.112989 71.513644 
L 387.275479 70.272761 
L 387.600459 70.272761 
L 387.762948 69.0387 
L 388.737887 69.0387 
L 388.900377 67.811327 
L 389.225356 67.811327 
L 389.387846 66.590527 
L 390.362785 66.590527 
L 390.525274 65.376212 
L 390.850254 65.376212 
L 391.012744 64.168269 
L 391.987682 64.168269 
L 392.150172 62.966585 
L 392.475152 62.966585 
L 392.637641 61.771093 
L 393.61258 61.771093 
L 393.77507 60.58168 
L 394.100049 60.58168 
L 394.262539 59.398279 
L 395.237477 59.398279 
L 395.399967 58.220754 
L 395.562457 58.220754 
L 395.724947 57.04906 
L 396.862375 57.04906 
L 397.024865 55.883085 
L 397.187355 55.883085 
L 397.349844 54.722762 
L 398.324783 54.722762 
L 398.487273 53.568 
L 398.487273 53.568 
" style="fill:none;stroke:#1f77b4;stroke-linecap:square;stroke-width:1.5;"/>
   </g>
   <g id="line2d_13">
    <path clip-path="url(#pf372e5a893)" d="M 73.832727 53.732384 
L 236.16 295.488 
L 236.16 295.488 
L 398.487273 53.732384 
L 398.487273 53.732384 
" style="fill:none;stroke:#ff7f0e;stroke-linecap:square;stroke-width:1.5;"/>
   </g>
   <g id="patch_3">
    <path d="M 57.6 307.584 
L 57.6 41.472 
" style="fill:none;stroke:#000000;stroke-linecap:square;stroke-linejoin:miter;stroke-width:0.8;"/>
   </g>
   <g id="patch_4">
    <path d="M 414.72 307.584 
L 414.72 41.472 
" style="fill:none;stroke:#000000;stroke-linecap:square;stroke-linejoin:miter;stroke-width:0.8;"/>
   </g>
   <g id="patch_5">
    <path d="M 57.6 307.584 
L 414.72 307.584 
" style="fill:none;stroke:#000000;stroke-linecap:square;stroke-linejoin:miter;stroke-width:0.8;"/>
   </g>
   <g id="patch_6">
    <path d="M 57.6 41.472 
L 414.72 41.472 
" style="fill:none;stroke:#000000;stroke-linecap:square;stroke-linejoin:miter;stroke-width:0.8;"/>
   </g>
   <g id="legend_1">
    <g id="patch_7">
     <path d="M 138.654531 79.3845 
L 333.665469 79.3845 
Q 335.665469 79.3845 335.665469 77.3845 
L 335.665469 48.472 
Q 335.665469 46.472 333.665469 46.472 
L 138.654531 46.472 
Q 136.654531 46.472 136.654531 48.472 
L 136.654531 77.3845 
Q 136.654531 79.3845 138.654531 79.3845 
z
" style="fill:#ffffff;opacity:0.8;stroke:#cccccc;stroke-linejoin:miter;"/>
    </g>
    <g id="line2d_14">
     <path d="M 140.654531 54.570438 
L 160.654531 54.570438 
" style="fill:none;stroke:#1f77b4;stroke-linecap:square;stroke-width:1.5;"/>
    </g>
    <g id="line2d_15"/>
    <g id="text_14">
     <!-- rotmat_geodesic_distance_naive -->
     <g transform="translate(168.654531 58.070438)scale(0.1 -0.1)">
      <defs>
       <path d="M 52 44.1875 
Q 55.375 50.25 60.0625 53.125 
Q 64.75 56 71.09375 56 
Q 79.640625 56 84.28125 50.015625 
Q 88.921875 44.046875 88.921875 33.015625 
L 88.921875 0 
L 79.890625 0 
L 79.890625 32.71875 
Q 79.890625 40.578125 77.09375 44.375 
Q 74.3125 48.1875 68.609375 48.1875 
Q 61.625 48.1875 57.5625 43.546875 
Q 53.515625 38.921875 53.515625 30.90625 
L 53.515625 0 
L 44.484375 0 
L 44.484375 32.71875 
Q 44.484375 40.625 41.703125 44.40625 
Q 38.921875 48.1875 33.109375 48.1875 
Q 26.21875 48.1875 22.15625 43.53125 
Q 18.109375 38.875 18.109375 30.90625 
L 18.109375 0 
L 9.078125 0 
L 9.078125 54.6875 
L 18.109375 54.6875 
L 18.109375 46.1875 
Q 21.1875 51.21875 25.484375 53.609375 
Q 29.78125 56 35.6875 56 
Q 41.65625 56 45.828125 52.96875 
Q 50 49.953125 52 44.1875 
z
" id="DejaVuSans-109"/>
       <path d="M 50.984375 -16.609375 
L 50.984375 -23.578125 
L -0.984375 -23.578125 
L -0.984375 -16.609375 
z
" id="DejaVuSans-95"/>
       <path d="M 2.984375 54.6875 
L 12.5 54.6875 
L 29.59375 8.796875 
L 46.6875 54.6875 
L 56.203125 54.6875 
L 35.6875 0 
L 23.484375 0 
z
" id="DejaVuSans-118"/>
      </defs>
      <use xlink:href="#DejaVuSans-114"/>
      <use x="38.863281" xlink:href="#DejaVuSans-111"/>
      <use x="100.044922" xlink:href="#DejaVuSans-116"/>
      <use x="139.253906" xlink:href="#DejaVuSans-109"/>
      <use x="236.666016" xlink:href="#DejaVuSans-97"/>
      <use x="297.945312" xlink:href="#DejaVuSans-116"/>
      <use x="337.154297" xlink:href="#DejaVuSans-95"/>
      <use x="387.154297" xlink:href="#DejaVuSans-103"/>
      <use x="450.630859" xlink:href="#DejaVuSans-101"/>
      <use x="512.154297" xlink:href="#DejaVuSans-111"/>
      <use x="573.335938" xlink:href="#DejaVuSans-100"/>
      <use x="636.8125" xlink:href="#DejaVuSans-101"/>
      <use x="698.335938" xlink:href="#DejaVuSans-115"/>
      <use x="750.435547" xlink:href="#DejaVuSans-105"/>
      <use x="778.21875" xlink:href="#DejaVuSans-99"/>
      <use x="833.199219" xlink:href="#DejaVuSans-95"/>
      <use x="883.199219" xlink:href="#DejaVuSans-100"/>
      <use x="946.675781" xlink:href="#DejaVuSans-105"/>
      <use x="974.458984" xlink:href="#DejaVuSans-115"/>
      <use x="1026.558594" xlink:href="#DejaVuSans-116"/>
      <use x="1065.767578" xlink:href="#DejaVuSans-97"/>
      <use x="1127.046875" xlink:href="#DejaVuSans-110"/>
      <use x="1190.425781" xlink:href="#DejaVuSans-99"/>
      <use x="1245.40625" xlink:href="#DejaVuSans-101"/>
      <use x="1306.929688" xlink:href="#DejaVuSans-95"/>
      <use x="1356.929688" xlink:href="#DejaVuSans-110"/>
      <use x="1420.308594" xlink:href="#DejaVuSans-97"/>
      <use x="1481.587891" xlink:href="#DejaVuSans-105"/>
      <use x="1509.371094" xlink:href="#DejaVuSans-118"/>
      <use x="1568.550781" xlink:href="#DejaVuSans-101"/>
     </g>
    </g>
    <g id="line2d_16">
     <path d="M 140.654531 69.526688 
L 160.654531 69.526688 
" style="fill:none;stroke:#ff7f0e;stroke-linecap:square;stroke-width:1.5;"/>
    </g>
    <g id="line2d_17"/>
    <g id="text_15">
     <!-- rotmat_geodesic_distance -->
     <g transform="translate(168.654531 73.026688)scale(0.1 -0.1)">
      <use xlink:href="#DejaVuSans-114"/>
      <use x="38.863281" xlink:href="#DejaVuSans-111"/>
      <use x="100.044922" xlink:href="#DejaVuSans-116"/>
      <use x="139.253906" xlink:href="#DejaVuSans-109"/>
      <use x="236.666016" xlink:href="#DejaVuSans-97"/>
      <use x="297.945312" xlink:href="#DejaVuSans-116"/>
      <use x="337.154297" xlink:href="#DejaVuSans-95"/>
      <use x="387.154297" xlink:href="#DejaVuSans-103"/>
      <use x="450.630859" xlink:href="#DejaVuSans-101"/>
      <use x="512.154297" xlink:href="#DejaVuSans-111"/>
      <use x="573.335938" xlink:href="#DejaVuSans-100"/>
      <use x="636.8125" xlink:href="#DejaVuSans-101"/>
      <use x="698.335938" xlink:href="#DejaVuSans-115"/>
      <use x="750.435547" xlink:href="#DejaVuSans-105"/>
      <use x="778.21875" xlink:href="#DejaVuSans-99"/>
      <use x="833.199219" xlink:href="#DejaVuSans-95"/>
      <use x="883.199219" xlink:href="#DejaVuSans-100"/>
      <use x="946.675781" xlink:href="#DejaVuSans-105"/>
      <use x="974.458984" xlink:href="#DejaVuSans-115"/>
      <use x="1026.558594" xlink:href="#DejaVuSans-116"/>
      <use x="1065.767578" xlink:href="#DejaVuSans-97"/>
      <use x="1127.046875" xlink:href="#DejaVuSans-110"/>
      <use x="1190.425781" xlink:href="#DejaVuSans-99"/>
      <use x="1245.40625" xlink:href="#DejaVuSans-101"/>
     </g>
    </g>
   </g>
  </g>
 </g>
 <defs>
  <clipPath id="pf372e5a893">
   <rect height="266.112" width="357.12" x="57.6" y="41.472"/>
  </clipPath>
 </defs>
</svg>
